M48
; DRILL file {KiCad 9.0.7} date 2026-03-11T14:03:04-0600
; FORMAT={-:-/ absolute / metric / decimal}
; #@! TF.CreationDate,2026-03-11T14:03:04-06:00
; #@! TF.GenerationSoftware,Kicad,Pcbnew,9.0.7
; #@! TF.FileFunction,Plated,1,2,PTH
FMAT,2
METRIC
; #@! TA.AperFunction,Plated,PTH,ViaDrill
T1C0.300
; #@! TA.AperFunction,Plated,PTH,ComponentDrill
T2C0.700
; #@! TA.AperFunction,Plated,PTH,ComponentDrill
T3C1.470
%
G90
G05
T1
X180.181Y-43.656
X180.181Y-62.706
X184.944Y-47.625
X186.531Y-50.8
T3
X211.296Y-40.322
X211.296Y-59.372
X212.606Y-38.862
X212.606Y-57.912
X217.606Y-38.362
X217.606Y-57.412
X217.646Y-37.782
X217.646Y-56.832
X230.346Y-40.322
X230.346Y-59.372
X231.656Y-38.862
X231.656Y-57.912
X236.656Y-38.362
X236.656Y-57.412
X236.696Y-37.782
X236.696Y-56.832
T2
G00X171.45Y-35.381
M15
G01X171.45Y-36.581
M16
G05
G00X171.45Y-39.881
M15
G01X171.45Y-41.081
M16
G05
G00X178.75Y-35.381
M15
G01X178.75Y-36.581
M16
G05
G00X178.75Y-39.881
M15
G01X178.75Y-41.081
M16
G05
M30
