%TF.GenerationSoftware,KiCad,Pcbnew,9.0.7*%
%TF.CreationDate,2026-03-11T14:03:44-06:00*%
%TF.ProjectId,keyboard-pcb-proj-best,6b657962-6f61-4726-942d-7063622d7072,rev?*%
%TF.SameCoordinates,Original*%
%TF.FileFunction,Copper,L2,Bot*%
%TF.FilePolarity,Positive*%
%FSLAX46Y46*%
G04 Gerber Fmt 4.6, Leading zero omitted, Abs format (unit mm)*
G04 Created by KiCad (PCBNEW 9.0.7) date 2026-03-11 14:03:44*
%MOMM*%
%LPD*%
G01*
G04 APERTURE LIST*
G04 Aperture macros list*
%AMRoundRect*
0 Rectangle with rounded corners*
0 $1 Rounding radius*
0 $2 $3 $4 $5 $6 $7 $8 $9 X,Y pos of 4 corners*
0 Add a 4 corners polygon primitive as box body*
4,1,4,$2,$3,$4,$5,$6,$7,$8,$9,$2,$3,0*
0 Add four circle primitives for the rounded corners*
1,1,$1+$1,$2,$3*
1,1,$1+$1,$4,$5*
1,1,$1+$1,$6,$7*
1,1,$1+$1,$8,$9*
0 Add four rect primitives between the rounded corners*
20,1,$1+$1,$2,$3,$4,$5,0*
20,1,$1+$1,$4,$5,$6,$7,0*
20,1,$1+$1,$6,$7,$8,$9,0*
20,1,$1+$1,$8,$9,$2,$3,0*%
%AMHorizOval*
0 Thick line with rounded ends*
0 $1 width*
0 $2 $3 position (X,Y) of the first rounded end (center of the circle)*
0 $4 $5 position (X,Y) of the second rounded end (center of the circle)*
0 Add line between two ends*
20,1,$1,$2,$3,$4,$5,0*
0 Add two circle primitives to create the rounded ends*
1,1,$1,$2,$3*
1,1,$1,$4,$5*%
G04 Aperture macros list end*
%TA.AperFunction,SMDPad,CuDef*%
%ADD10R,0.500000X2.250000*%
%TD*%
%TA.AperFunction,ComponentPad*%
%ADD11O,1.700000X2.700000*%
%TD*%
%TA.AperFunction,ComponentPad*%
%ADD12HorizOval,2.250000X0.655001X0.730000X-0.655001X-0.730000X0*%
%TD*%
%TA.AperFunction,ComponentPad*%
%ADD13C,2.250000*%
%TD*%
%TA.AperFunction,ComponentPad*%
%ADD14HorizOval,2.250000X0.020000X0.290000X-0.020000X-0.290000X0*%
%TD*%
%TA.AperFunction,SMDPad,CuDef*%
%ADD15RoundRect,0.250000X0.475000X-0.337500X0.475000X0.337500X-0.475000X0.337500X-0.475000X-0.337500X0*%
%TD*%
%TA.AperFunction,SMDPad,CuDef*%
%ADD16RoundRect,0.250000X0.450000X-0.262500X0.450000X0.262500X-0.450000X0.262500X-0.450000X-0.262500X0*%
%TD*%
%TA.AperFunction,SMDPad,CuDef*%
%ADD17RoundRect,0.250000X0.337500X0.475000X-0.337500X0.475000X-0.337500X-0.475000X0.337500X-0.475000X0*%
%TD*%
%TA.AperFunction,SMDPad,CuDef*%
%ADD18RoundRect,0.250000X0.450000X0.350000X-0.450000X0.350000X-0.450000X-0.350000X0.450000X-0.350000X0*%
%TD*%
%TA.AperFunction,SMDPad,CuDef*%
%ADD19RoundRect,0.137500X-0.600000X-0.137500X0.600000X-0.137500X0.600000X0.137500X-0.600000X0.137500X0*%
%TD*%
%TA.AperFunction,SMDPad,CuDef*%
%ADD20RoundRect,0.137500X-0.137500X-0.600000X0.137500X-0.600000X0.137500X0.600000X-0.137500X0.600000X0*%
%TD*%
%TA.AperFunction,SMDPad,CuDef*%
%ADD21RoundRect,0.250000X-0.475000X0.337500X-0.475000X-0.337500X0.475000X-0.337500X0.475000X0.337500X0*%
%TD*%
%TA.AperFunction,SMDPad,CuDef*%
%ADD22RoundRect,0.225000X0.375000X-0.225000X0.375000X0.225000X-0.375000X0.225000X-0.375000X-0.225000X0*%
%TD*%
%TA.AperFunction,SMDPad,CuDef*%
%ADD23RoundRect,0.250000X0.625000X-0.375000X0.625000X0.375000X-0.625000X0.375000X-0.625000X-0.375000X0*%
%TD*%
%TA.AperFunction,SMDPad,CuDef*%
%ADD24R,1.800000X1.100000*%
%TD*%
%TA.AperFunction,ViaPad*%
%ADD25C,0.600000*%
%TD*%
%TA.AperFunction,Conductor*%
%ADD26C,0.355600*%
%TD*%
%TA.AperFunction,Conductor*%
%ADD27C,0.200000*%
%TD*%
%TA.AperFunction,Conductor*%
%ADD28C,0.254000*%
%TD*%
G04 APERTURE END LIST*
D10*
%TO.P,USB1,1,GND*%
%TO.N,GND*%
X176700000Y-40481250D03*
%TO.P,USB1,2,ID*%
%TO.N,unconnected-(USB1-ID-Pad2)*%
X175900000Y-40481250D03*
%TO.P,USB1,3,D+*%
%TO.N,D+*%
X175100000Y-40481250D03*
%TO.P,USB1,4,D-*%
%TO.N,D-*%
X174300000Y-40481250D03*
%TO.P,USB1,5,VBUS*%
%TO.N,VCC*%
X173500000Y-40481250D03*
D11*
%TO.P,USB1,6,SHIELD*%
%TO.N,unconnected-(USB1-SHIELD-Pad6)*%
X178750000Y-35981250D03*
X171450000Y-35981250D03*
X178750000Y-40481250D03*
X171450000Y-40481250D03*
%TD*%
D12*
%TO.P,MX1,1,COL*%
%TO.N,COL0*%
X211951251Y-39592500D03*
D13*
X212606250Y-38862500D03*
D14*
%TO.P,MX1,2,ROW*%
%TO.N,Net-(D1-A)*%
X217626250Y-38072500D03*
D13*
X217646250Y-37782500D03*
%TD*%
D12*
%TO.P,MX3,1,COL*%
%TO.N,COL0*%
X211951251Y-58642500D03*
D13*
X212606250Y-57912500D03*
D14*
%TO.P,MX3,2,ROW*%
%TO.N,Net-(D3-A)*%
X217626250Y-57122500D03*
D13*
X217646250Y-56832500D03*
%TD*%
D12*
%TO.P,MX2,1,COL*%
%TO.N,COL1*%
X231001251Y-39592500D03*
D13*
X231656250Y-38862500D03*
D14*
%TO.P,MX2,2,ROW*%
%TO.N,Net-(D2-A)*%
X236676250Y-38072500D03*
D13*
X236696250Y-37782500D03*
%TD*%
D12*
%TO.P,MX4,1,COL*%
%TO.N,COL1*%
X231001251Y-58642500D03*
D13*
X231656250Y-57912500D03*
D14*
%TO.P,MX4,2,ROW*%
%TO.N,Net-(D4-A)*%
X236676250Y-57122500D03*
D13*
X236696250Y-56832500D03*
%TD*%
D15*
%TO.P,C2,1*%
%TO.N,+5V*%
X184950000Y-46143750D03*
%TO.P,C2,2*%
%TO.N,GND*%
X184950000Y-44068750D03*
%TD*%
D16*
%TO.P,R4,1*%
%TO.N,+5V*%
X181775000Y-45587500D03*
%TO.P,R4,2*%
%TO.N,Net-(U1-~{RESET})*%
X181775000Y-43762500D03*
%TD*%
D17*
%TO.P,C3,1*%
%TO.N,+5V*%
X199237500Y-62018750D03*
%TO.P,C3,2*%
%TO.N,GND*%
X197162500Y-62018750D03*
%TD*%
D18*
%TO.P,Y1,1,1*%
%TO.N,Net-(U1-XTAL1)*%
X195087500Y-41381250D03*
%TO.P,Y1,2,2*%
%TO.N,GND*%
X192887500Y-41381250D03*
%TO.P,Y1,3,3*%
%TO.N,Net-(U1-XTAL2)*%
X192887500Y-39681250D03*
%TO.P,Y1,4,4*%
%TO.N,GND*%
X195087500Y-39681250D03*
%TD*%
D15*
%TO.P,C4,1*%
%TO.N,+5V*%
X203200000Y-48418750D03*
%TO.P,C4,2*%
%TO.N,GND*%
X203200000Y-46343750D03*
%TD*%
D16*
%TO.P,R3,1*%
%TO.N,Net-(U1-D-)*%
X173037500Y-47625000D03*
%TO.P,R3,2*%
%TO.N,D-*%
X173037500Y-45800000D03*
%TD*%
D19*
%TO.P,U1,1,PE6*%
%TO.N,unconnected-(U1-PE6-Pad1)*%
X188018750Y-56493750D03*
%TO.P,U1,2,UVCC*%
%TO.N,+5V*%
X188018750Y-55693750D03*
%TO.P,U1,3,D-*%
%TO.N,Net-(U1-D-)*%
X188018750Y-54893750D03*
%TO.P,U1,4,D+*%
%TO.N,Net-(U1-D+)*%
X188018750Y-54093750D03*
%TO.P,U1,5,UGND*%
%TO.N,GND*%
X188018750Y-53293750D03*
%TO.P,U1,6,UCAP*%
%TO.N,Net-(U1-UCAP)*%
X188018750Y-52493750D03*
%TO.P,U1,7,VBUS*%
%TO.N,+5V*%
X188018750Y-51693750D03*
%TO.P,U1,8,PB0*%
%TO.N,unconnected-(U1-PB0-Pad8)*%
X188018750Y-50893750D03*
%TO.P,U1,9,PB1*%
%TO.N,unconnected-(U1-PB1-Pad9)*%
X188018750Y-50093750D03*
%TO.P,U1,10,PB2*%
%TO.N,unconnected-(U1-PB2-Pad10)*%
X188018750Y-49293750D03*
%TO.P,U1,11,PB3*%
%TO.N,unconnected-(U1-PB3-Pad11)*%
X188018750Y-48493750D03*
D20*
%TO.P,U1,12,PB7*%
%TO.N,unconnected-(U1-PB7-Pad12)*%
X189681250Y-46831250D03*
%TO.P,U1,13,~{RESET}*%
%TO.N,Net-(U1-~{RESET})*%
X190481250Y-46831250D03*
%TO.P,U1,14,VCC*%
%TO.N,+5V*%
X191281250Y-46831250D03*
%TO.P,U1,15,GND*%
%TO.N,GND*%
X192081250Y-46831250D03*
%TO.P,U1,16,XTAL2*%
%TO.N,Net-(U1-XTAL2)*%
X192881250Y-46831250D03*
%TO.P,U1,17,XTAL1*%
%TO.N,Net-(U1-XTAL1)*%
X193681250Y-46831250D03*
%TO.P,U1,18,PD0*%
%TO.N,unconnected-(U1-PD0-Pad18)*%
X194481250Y-46831250D03*
%TO.P,U1,19,PD1*%
%TO.N,unconnected-(U1-PD1-Pad19)*%
X195281250Y-46831250D03*
%TO.P,U1,20,PD2*%
%TO.N,unconnected-(U1-PD2-Pad20)*%
X196081250Y-46831250D03*
%TO.P,U1,21,PD3*%
%TO.N,unconnected-(U1-PD3-Pad21)*%
X196881250Y-46831250D03*
%TO.P,U1,22,PD5*%
%TO.N,unconnected-(U1-PD5-Pad22)*%
X197681250Y-46831250D03*
D19*
%TO.P,U1,23,GND*%
%TO.N,GND*%
X199343750Y-48493750D03*
%TO.P,U1,24,AVCC*%
%TO.N,+5V*%
X199343750Y-49293750D03*
%TO.P,U1,25,PD4*%
%TO.N,unconnected-(U1-PD4-Pad25)*%
X199343750Y-50093750D03*
%TO.P,U1,26,PD6*%
%TO.N,unconnected-(U1-PD6-Pad26)*%
X199343750Y-50893750D03*
%TO.P,U1,27,PD7*%
%TO.N,ROW0*%
X199343750Y-51693750D03*
%TO.P,U1,28,PB4*%
%TO.N,COL1*%
X199343750Y-52493750D03*
%TO.P,U1,29,PB5*%
%TO.N,COL0*%
X199343750Y-53293750D03*
%TO.P,U1,30,PB6*%
%TO.N,ROW1*%
X199343750Y-54093750D03*
%TO.P,U1,31,PC6*%
%TO.N,unconnected-(U1-PC6-Pad31)*%
X199343750Y-54893750D03*
%TO.P,U1,32,PC7*%
%TO.N,unconnected-(U1-PC7-Pad32)*%
X199343750Y-55693750D03*
%TO.P,U1,33,~{HWB}/PE2*%
%TO.N,Net-(U1-~{HWB}{slash}PE2)*%
X199343750Y-56493750D03*
D20*
%TO.P,U1,34,VCC*%
%TO.N,+5V*%
X197681250Y-58156250D03*
%TO.P,U1,35,GND*%
%TO.N,GND*%
X196881250Y-58156250D03*
%TO.P,U1,36,PF7*%
%TO.N,unconnected-(U1-PF7-Pad36)*%
X196081250Y-58156250D03*
%TO.P,U1,37,PF6*%
%TO.N,unconnected-(U1-PF6-Pad37)*%
X195281250Y-58156250D03*
%TO.P,U1,38,PF5*%
%TO.N,unconnected-(U1-PF5-Pad38)*%
X194481250Y-58156250D03*
%TO.P,U1,39,PF4*%
%TO.N,unconnected-(U1-PF4-Pad39)*%
X193681250Y-58156250D03*
%TO.P,U1,40,PF1*%
%TO.N,unconnected-(U1-PF1-Pad40)*%
X192881250Y-58156250D03*
%TO.P,U1,41,PF0*%
%TO.N,unconnected-(U1-PF0-Pad41)*%
X192081250Y-58156250D03*
%TO.P,U1,42,AREF*%
%TO.N,unconnected-(U1-AREF-Pad42)*%
X191281250Y-58156250D03*
%TO.P,U1,43,GND*%
%TO.N,GND*%
X190481250Y-58156250D03*
%TO.P,U1,44,AVCC*%
%TO.N,+5V*%
X189681250Y-58156250D03*
%TD*%
D16*
%TO.P,R2,1*%
%TO.N,Net-(U1-D+)*%
X175987500Y-47625000D03*
%TO.P,R2,2*%
%TO.N,D+*%
X175987500Y-45800000D03*
%TD*%
D21*
%TO.P,C5,1*%
%TO.N,+5V*%
X185737500Y-59531250D03*
%TO.P,C5,2*%
%TO.N,GND*%
X185737500Y-61606250D03*
%TD*%
%TO.P,C6,1*%
%TO.N,GND*%
X198200000Y-39306250D03*
%TO.P,C6,2*%
%TO.N,Net-(U1-XTAL1)*%
X198200000Y-41381250D03*
%TD*%
D22*
%TO.P,D2,1,K*%
%TO.N,ROW0*%
X242093750Y-44512500D03*
%TO.P,D2,2,A*%
%TO.N,Net-(D2-A)*%
X242093750Y-41212500D03*
%TD*%
%TO.P,D1,1,K*%
%TO.N,ROW0*%
X223043750Y-44575000D03*
%TO.P,D1,2,A*%
%TO.N,Net-(D1-A)*%
X223043750Y-41275000D03*
%TD*%
D23*
%TO.P,F1,1*%
%TO.N,+5V*%
X169862500Y-52387500D03*
%TO.P,F1,2*%
%TO.N,VCC*%
X169862500Y-49587500D03*
%TD*%
D22*
%TO.P,D3,1,K*%
%TO.N,ROW1*%
X223043750Y-63625000D03*
%TO.P,D3,2,A*%
%TO.N,Net-(D3-A)*%
X223043750Y-60325000D03*
%TD*%
D16*
%TO.P,R1,1*%
%TO.N,GND*%
X203200000Y-58975000D03*
%TO.P,R1,2*%
%TO.N,Net-(U1-~{HWB}{slash}PE2)*%
X203200000Y-57150000D03*
%TD*%
D15*
%TO.P,C7,1*%
%TO.N,GND*%
X189712500Y-41381250D03*
%TO.P,C7,2*%
%TO.N,Net-(U1-XTAL2)*%
X189712500Y-39306250D03*
%TD*%
D17*
%TO.P,C1,1*%
%TO.N,Net-(U1-UCAP)*%
X184637500Y-50800000D03*
%TO.P,C1,2*%
%TO.N,GND*%
X182562500Y-50800000D03*
%TD*%
D24*
%TO.P,SW1,1,1*%
%TO.N,GND*%
X171600000Y-66675000D03*
%TO.P,SW1,2,2*%
%TO.N,Net-(U1-~{RESET})*%
X177800000Y-62975000D03*
%TO.P,SW1,3*%
%TO.N,N/C*%
X171600000Y-62975000D03*
%TO.P,SW1,4*%
X177800000Y-66675000D03*
%TD*%
D22*
%TO.P,D4,1,K*%
%TO.N,ROW1*%
X242093750Y-63562500D03*
%TO.P,D4,2,A*%
%TO.N,Net-(D4-A)*%
X242093750Y-60262500D03*
%TD*%
D25*
%TO.N,+5V*%
X184943750Y-47625000D03*
X186531250Y-50800000D03*
%TO.N,Net-(U1-~{RESET})*%
X180181250Y-62706250D03*
X180181250Y-43656250D03*
%TD*%
D26*
%TO.N,GND*%
X177818750Y-42475000D02*
X183356250Y-42475000D01*
X176700000Y-41356250D02*
X177818750Y-42475000D01*
X176700000Y-40481250D02*
X176700000Y-41356250D01*
X183356250Y-42475000D02*
X184950000Y-44068750D01*
D27*
%TO.N,D+*%
X175100000Y-40481250D02*
X175100000Y-44912500D01*
%TO.N,D-*%
X174300000Y-40481250D02*
X174300000Y-44537500D01*
D26*
%TO.N,VCC*%
X173500000Y-40481250D02*
X173500000Y-42400000D01*
D28*
%TO.N,unconnected-(USB1-SHIELD-Pad6)*%
X178750000Y-35187500D02*
X178750000Y-39687500D01*
X171450000Y-39687500D02*
X171450000Y-35187500D01*
X171450000Y-35187500D02*
X178750000Y-35187500D01*
%TO.N,Net-(U1-UCAP)*%
X184637500Y-50800000D02*
X184637500Y-52081250D01*
X185050000Y-52493750D02*
X188018750Y-52493750D01*
X184637500Y-52081250D02*
X185050000Y-52493750D01*
D26*
%TO.N,GND*%
X176700000Y-40175000D02*
X176700000Y-39687500D01*
X196850000Y-54768750D02*
X196881250Y-54800000D01*
X196881250Y-54800000D02*
X196881250Y-58156250D01*
X196881250Y-54800000D02*
X196881250Y-50218751D01*
X190481250Y-60306250D02*
X190481250Y-58156250D01*
X182256250Y-61606250D02*
X185737500Y-61606250D01*
X198200000Y-39306250D02*
X195462500Y-39306250D01*
X190500000Y-60325000D02*
X190481250Y-60306250D01*
X203200000Y-46343750D02*
X201493750Y-46343750D01*
X190481250Y-54787500D02*
X196831250Y-54787500D01*
X203200000Y-58975000D02*
X203200000Y-62706250D01*
X190481250Y-54787500D02*
X190500000Y-54768750D01*
X196881250Y-50218751D02*
X198606251Y-48493750D01*
X187218750Y-41381250D02*
X189712500Y-41381250D01*
X183468750Y-53293750D02*
X188018750Y-53293750D01*
X192887500Y-41381250D02*
X192081250Y-42187500D01*
X196831250Y-54787500D02*
X196850000Y-54768750D01*
X169068750Y-60325000D02*
X169862500Y-59531250D01*
X195462500Y-39306250D02*
X195087500Y-39681250D01*
X189025000Y-53293750D02*
X188018750Y-53293750D01*
X171600000Y-66675000D02*
X169862500Y-66675000D01*
X182562500Y-52387500D02*
X183468750Y-53293750D01*
X169862500Y-66675000D02*
X169068750Y-65881250D01*
X196881250Y-61737500D02*
X196881250Y-58156250D01*
X185737500Y-61606250D02*
X189218750Y-61606250D01*
X180181250Y-59531250D02*
X182256250Y-61606250D01*
X169862500Y-59531250D02*
X180181250Y-59531250D01*
X197162500Y-62018750D02*
X196881250Y-61737500D01*
X169068750Y-65881250D02*
X169068750Y-60325000D01*
X184950000Y-44068750D02*
X184950000Y-43650000D01*
X200818750Y-65087500D02*
X198437500Y-65087500D01*
X198606251Y-48493750D02*
X199343750Y-48493750D01*
X176700000Y-39425000D02*
X176700000Y-40175000D01*
X196881250Y-50218751D02*
X194681251Y-50218751D01*
X195087500Y-39681250D02*
X194587500Y-39681250D01*
X184950000Y-43650000D02*
X187218750Y-41381250D01*
X192081250Y-42187500D02*
X192081250Y-46831250D01*
X190500000Y-54768750D02*
X189025000Y-53293750D01*
X182562500Y-50800000D02*
X182562500Y-52387500D01*
X192081250Y-47618750D02*
X192081250Y-46831250D01*
X189712500Y-41381250D02*
X192887500Y-41381250D01*
X190481250Y-58156250D02*
X190481250Y-54787500D01*
X194681251Y-50218751D02*
X192081250Y-47618750D01*
X198437500Y-65087500D02*
X197162500Y-63812500D01*
X189218750Y-61606250D02*
X190500000Y-60325000D01*
X194587500Y-39681250D02*
X192887500Y-41381250D01*
X197162500Y-63812500D02*
X197162500Y-62018750D01*
X203200000Y-62706250D02*
X200818750Y-65087500D01*
X201493750Y-46343750D02*
X199343750Y-48493750D01*
%TO.N,+5V*%
X169862500Y-52387500D02*
X173168750Y-55693750D01*
X184393750Y-45587500D02*
X184950000Y-46143750D01*
X185737500Y-59531250D02*
X188306250Y-59531250D01*
X188018750Y-51693750D02*
X188756249Y-51693750D01*
X185737500Y-55693750D02*
X188018750Y-55693750D01*
X186531250Y-50943749D02*
X186531250Y-50800000D01*
X188756249Y-51693750D02*
X191281250Y-49168749D01*
X187281251Y-51693750D02*
X186531250Y-50943749D01*
X197681250Y-60287500D02*
X197681250Y-58156250D01*
X173168750Y-55693750D02*
X185737500Y-55693750D01*
X191281250Y-49168749D02*
X191281250Y-46831250D01*
X188306250Y-59531250D02*
X189681250Y-58156250D01*
X203200000Y-48418750D02*
X202325000Y-49293750D01*
X184950000Y-47618750D02*
X184943750Y-47625000D01*
X202325000Y-49293750D02*
X199343750Y-49293750D01*
X199237500Y-61918750D02*
X197643750Y-60325000D01*
X184950000Y-46143750D02*
X184950000Y-47618750D01*
X181775000Y-45587500D02*
X184393750Y-45587500D01*
X188018750Y-51693750D02*
X187281251Y-51693750D01*
X199237500Y-62018750D02*
X199237500Y-61918750D01*
X185737500Y-55693750D02*
X185737500Y-59531250D01*
X197643750Y-60325000D02*
X197681250Y-60287500D01*
D28*
%TO.N,Net-(U1-XTAL1)*%
X193681250Y-42787500D02*
X193681250Y-46831250D01*
X195087500Y-41381250D02*
X193681250Y-42787500D01*
X198200000Y-41381250D02*
X195087500Y-41381250D01*
%TO.N,Net-(U1-XTAL2)*%
X192887500Y-39681250D02*
X190087500Y-39681250D01*
X190087500Y-39681250D02*
X189712500Y-39306250D01*
%TO.N,Net-(D1-A)*%
X220518750Y-41275000D02*
X223043750Y-41275000D01*
X217606250Y-38362500D02*
X220518750Y-41275000D01*
%TO.N,ROW0*%
X223703150Y-45234400D02*
X223043750Y-44575000D01*
X242093750Y-44512500D02*
X241371850Y-45234400D01*
X223043750Y-44575000D02*
X215925000Y-51693750D01*
X215925000Y-51693750D02*
X199343750Y-51693750D01*
X241371850Y-45234400D02*
X223703150Y-45234400D01*
%TO.N,Net-(D2-A)*%
X239506250Y-41212500D02*
X242093750Y-41212500D01*
X236656250Y-38362500D02*
X239506250Y-41212500D01*
%TO.N,ROW1*%
X203919631Y-54093750D02*
X206375000Y-56549119D01*
X206375000Y-65087500D02*
X207168750Y-65881250D01*
X199343750Y-54093750D02*
X203919631Y-54093750D01*
X241371850Y-64284400D02*
X223703150Y-64284400D01*
X223703150Y-64284400D02*
X223043750Y-63625000D01*
X242093750Y-63562500D02*
X241371850Y-64284400D01*
X207168750Y-65881250D02*
X220787500Y-65881250D01*
X220787500Y-65881250D02*
X223043750Y-63625000D01*
X206375000Y-56549119D02*
X206375000Y-65087500D01*
%TO.N,Net-(D3-A)*%
X220518750Y-60325000D02*
X223043750Y-60325000D01*
X217606250Y-57412500D02*
X220518750Y-60325000D01*
%TO.N,Net-(D4-A)*%
X236656250Y-57412500D02*
X236656250Y-57560490D01*
X236656250Y-57560490D02*
X239358260Y-60262500D01*
X239358260Y-60262500D02*
X242093750Y-60262500D01*
D26*
%TO.N,VCC*%
X169862500Y-42862500D02*
X173037500Y-42862500D01*
X169862500Y-49587500D02*
X169862500Y-42862500D01*
X173037500Y-42862500D02*
X173500000Y-42400000D01*
D28*
%TO.N,COL0*%
X212606250Y-57912500D02*
X211843750Y-57150000D01*
X210343750Y-57150000D02*
X210343750Y-53975000D01*
X209437500Y-53293750D02*
X199343750Y-53293750D01*
X211843750Y-57150000D02*
X210343750Y-57150000D01*
X210343750Y-53975000D02*
X209550000Y-53181250D01*
X209550000Y-53181250D02*
X209437500Y-53293750D01*
%TO.N,COL1*%
X226237500Y-52493750D02*
X231656250Y-57912500D01*
X199343750Y-52493750D02*
X226237500Y-52493750D01*
%TO.N,Net-(U1-~{HWB}{slash}PE2)*%
X203200000Y-57150000D02*
X200000000Y-57150000D01*
X200000000Y-57150000D02*
X199343750Y-56493750D01*
D27*
%TO.N,D+*%
X175987500Y-45800000D02*
X175100000Y-44912500D01*
D28*
%TO.N,Net-(U1-D+)*%
X175987500Y-50575000D02*
X179506250Y-54093750D01*
X179506250Y-54093750D02*
X188018750Y-54093750D01*
X175987500Y-47625000D02*
X175987500Y-50575000D01*
D27*
%TO.N,D-*%
X173037500Y-45800000D02*
X174300000Y-44537500D01*
D28*
%TO.N,Net-(U1-D-)*%
X178718750Y-54893750D02*
X188018750Y-54893750D01*
X173037500Y-47625000D02*
X173037500Y-49212500D01*
X173037500Y-49212500D02*
X178718750Y-54893750D01*
%TO.N,Net-(U1-~{RESET})*%
X190481250Y-46093751D02*
X190481250Y-46831250D01*
X180287500Y-43762500D02*
X180181250Y-43656250D01*
X181775000Y-43762500D02*
X180287500Y-43762500D01*
X189469199Y-45081700D02*
X190481250Y-46093751D01*
X177800000Y-62975000D02*
X179912500Y-62975000D01*
X183094200Y-45081700D02*
X189469199Y-45081700D01*
X179912500Y-62975000D02*
X180181250Y-62706250D01*
X181775000Y-43762500D02*
X183094200Y-45081700D01*
%TD*%
%TA.AperFunction,Conductor*%
%TO.N,GND*%
G36*
X205524289Y-33857710D02*
G01*
X205570044Y-33910513D01*
X205581250Y-33962025D01*
X205581250Y-50942250D01*
X205561565Y-51009289D01*
X205508761Y-51055044D01*
X205457250Y-51066250D01*
X200705750Y-51066250D01*
X200638711Y-51046565D01*
X200592956Y-50993761D01*
X200581750Y-50942250D01*
X200581749Y-50691827D01*
X200581748Y-50691802D01*
X200578904Y-50655652D01*
X200549723Y-50555212D01*
X200541917Y-50528343D01*
X200541917Y-50459156D01*
X200578904Y-50331848D01*
X200581750Y-50295685D01*
X200581749Y-50096049D01*
X200601433Y-50029011D01*
X200654237Y-49983256D01*
X200705749Y-49972050D01*
X202391808Y-49972050D01*
X202391809Y-49972049D01*
X202522853Y-49945984D01*
X202612632Y-49908796D01*
X202646296Y-49894852D01*
X202757391Y-49820620D01*
X202851870Y-49726141D01*
X203034942Y-49543067D01*
X203096265Y-49509583D01*
X203122623Y-49506749D01*
X203725002Y-49506749D01*
X203725008Y-49506749D01*
X203827797Y-49496249D01*
X203994334Y-49441064D01*
X204143656Y-49348962D01*
X204267712Y-49224906D01*
X204359814Y-49075584D01*
X204414999Y-48909047D01*
X204425500Y-48806259D01*
X204425499Y-48031242D01*
X204424067Y-48017228D01*
X204414999Y-47928453D01*
X204414998Y-47928450D01*
X204391815Y-47858489D01*
X204359814Y-47761916D01*
X204267712Y-47612594D01*
X204143656Y-47488538D01*
X204140342Y-47486493D01*
X204138546Y-47484498D01*
X204137989Y-47484057D01*
X204138064Y-47483961D01*
X204093618Y-47434547D01*
X204082397Y-47365584D01*
X204110240Y-47301502D01*
X204140348Y-47275415D01*
X204143342Y-47273568D01*
X204267315Y-47149595D01*
X204359356Y-47000374D01*
X204359358Y-47000369D01*
X204414505Y-46833947D01*
X204414506Y-46833940D01*
X204424999Y-46731236D01*
X204425000Y-46731223D01*
X204425000Y-46593750D01*
X201975001Y-46593750D01*
X201975001Y-46731236D01*
X201985494Y-46833947D01*
X202040641Y-47000369D01*
X202040643Y-47000374D01*
X202132684Y-47149595D01*
X202256655Y-47273566D01*
X202256659Y-47273569D01*
X202259656Y-47275418D01*
X202261279Y-47277222D01*
X202262323Y-47278048D01*
X202262181Y-47278226D01*
X202306381Y-47327366D01*
X202317602Y-47396329D01*
X202289759Y-47460411D01*
X202259661Y-47486491D01*
X202256349Y-47488533D01*
X202256343Y-47488538D01*
X202132289Y-47612592D01*
X202040187Y-47761913D01*
X202040186Y-47761916D01*
X201985001Y-47928453D01*
X201985001Y-47928454D01*
X201985000Y-47928454D01*
X201974500Y-48031233D01*
X201974500Y-48031241D01*
X201974500Y-48291827D01*
X201974501Y-48491450D01*
X201954817Y-48558489D01*
X201902013Y-48604244D01*
X201850501Y-48615450D01*
X200316565Y-48615450D01*
X200253445Y-48598182D01*
X200199144Y-48566069D01*
X200199143Y-48566068D01*
X200199142Y-48566068D01*
X200199139Y-48566067D01*
X200044352Y-48521096D01*
X200044346Y-48521095D01*
X200008192Y-48518250D01*
X198679327Y-48518250D01*
X198679302Y-48518251D01*
X198643151Y-48521096D01*
X198488360Y-48566067D01*
X198488353Y-48566070D01*
X198349613Y-48648119D01*
X198349605Y-48648125D01*
X198319953Y-48677778D01*
X198290298Y-48707432D01*
X198228978Y-48740916D01*
X198202619Y-48743750D01*
X198112575Y-48743750D01*
X198145843Y-48858260D01*
X198145842Y-48927449D01*
X198108596Y-49055647D01*
X198108595Y-49055653D01*
X198105750Y-49091807D01*
X198105750Y-49495672D01*
X198105751Y-49495697D01*
X198108596Y-49531848D01*
X198145582Y-49659154D01*
X198145582Y-49728344D01*
X198108596Y-49855647D01*
X198108595Y-49855653D01*
X198105750Y-49891807D01*
X198105750Y-50295672D01*
X198105751Y-50295697D01*
X198108596Y-50331848D01*
X198145582Y-50459154D01*
X198145582Y-50528344D01*
X198108596Y-50655647D01*
X198108595Y-50655653D01*
X198105750Y-50691807D01*
X198105750Y-51095672D01*
X198105751Y-51095697D01*
X198108596Y-51131848D01*
X198145582Y-51259154D01*
X198145582Y-51328344D01*
X198108596Y-51455647D01*
X198108595Y-51455653D01*
X198105750Y-51491807D01*
X198105750Y-51895672D01*
X198105751Y-51895697D01*
X198108596Y-51931848D01*
X198145582Y-52059154D01*
X198145582Y-52128344D01*
X198108596Y-52255647D01*
X198108595Y-52255653D01*
X198105750Y-52291807D01*
X198105750Y-52695672D01*
X198105751Y-52695697D01*
X198108596Y-52731848D01*
X198145582Y-52859154D01*
X198145582Y-52928344D01*
X198108596Y-53055647D01*
X198108595Y-53055653D01*
X198105750Y-53091807D01*
X198105750Y-53495672D01*
X198105751Y-53495697D01*
X198108596Y-53531848D01*
X198145582Y-53659154D01*
X198145582Y-53728344D01*
X198108596Y-53855647D01*
X198108595Y-53855653D01*
X198105750Y-53891807D01*
X198105750Y-54295672D01*
X198105751Y-54295697D01*
X198108596Y-54331848D01*
X198145582Y-54459154D01*
X198145582Y-54528344D01*
X198108596Y-54655647D01*
X198108595Y-54655653D01*
X198105750Y-54691807D01*
X198105750Y-55095672D01*
X198105751Y-55095697D01*
X198108596Y-55131848D01*
X198145582Y-55259154D01*
X198145582Y-55328344D01*
X198108596Y-55455647D01*
X198108595Y-55455653D01*
X198105750Y-55491807D01*
X198105750Y-55895672D01*
X198105751Y-55895697D01*
X198108596Y-55931848D01*
X198145582Y-56059154D01*
X198145582Y-56128344D01*
X198108596Y-56255647D01*
X198108595Y-56255653D01*
X198105750Y-56291807D01*
X198105750Y-56695672D01*
X198105751Y-56695697D01*
X198108595Y-56731845D01*
X198123165Y-56781994D01*
X198122965Y-56851863D01*
X198085022Y-56910533D01*
X198021384Y-56939376D01*
X197969493Y-56935664D01*
X197919352Y-56921096D01*
X197919346Y-56921095D01*
X197883185Y-56918250D01*
X197479327Y-56918250D01*
X197479302Y-56918251D01*
X197443151Y-56921096D01*
X197314950Y-56958342D01*
X197245760Y-56958342D01*
X197131251Y-56925073D01*
X197131250Y-56925074D01*
X197131250Y-57015118D01*
X197124820Y-57037012D01*
X197122937Y-57059756D01*
X197114199Y-57073184D01*
X197111565Y-57082157D01*
X197105675Y-57090541D01*
X197100707Y-57097023D01*
X197035624Y-57162107D01*
X196984195Y-57249068D01*
X196979675Y-57254968D01*
X196957229Y-57271379D01*
X196936913Y-57290349D01*
X196929422Y-57291711D01*
X196923274Y-57296207D01*
X196895520Y-57297878D01*
X196868172Y-57302853D01*
X196861132Y-57299949D01*
X196853530Y-57300407D01*
X196829281Y-57286809D01*
X196803582Y-57276208D01*
X196797162Y-57268798D01*
X196792588Y-57266234D01*
X196788856Y-57259213D01*
X196774518Y-57242666D01*
X196726877Y-57162109D01*
X196726876Y-57162107D01*
X196726874Y-57162105D01*
X196726871Y-57162101D01*
X196667569Y-57102799D01*
X196634084Y-57041476D01*
X196631250Y-57015118D01*
X196631250Y-56925074D01*
X196631248Y-56925073D01*
X196516739Y-56958342D01*
X196447549Y-56958342D01*
X196319352Y-56921096D01*
X196319346Y-56921095D01*
X196283185Y-56918250D01*
X195879327Y-56918250D01*
X195879302Y-56918251D01*
X195843151Y-56921096D01*
X195715845Y-56958082D01*
X195646655Y-56958082D01*
X195519352Y-56921096D01*
X195519346Y-56921095D01*
X195483185Y-56918250D01*
X195079327Y-56918250D01*
X195079302Y-56918251D01*
X195043151Y-56921096D01*
X194915845Y-56958082D01*
X194846655Y-56958082D01*
X194719352Y-56921096D01*
X194719346Y-56921095D01*
X194683185Y-56918250D01*
X194279327Y-56918250D01*
X194279302Y-56918251D01*
X194243151Y-56921096D01*
X194115845Y-56958082D01*
X194046655Y-56958082D01*
X193919352Y-56921096D01*
X193919346Y-56921095D01*
X193883185Y-56918250D01*
X193479327Y-56918250D01*
X193479302Y-56918251D01*
X193443151Y-56921096D01*
X193315845Y-56958082D01*
X193246655Y-56958082D01*
X193119352Y-56921096D01*
X193119346Y-56921095D01*
X193083185Y-56918250D01*
X192679327Y-56918250D01*
X192679302Y-56918251D01*
X192643151Y-56921096D01*
X192515845Y-56958082D01*
X192446655Y-56958082D01*
X192319352Y-56921096D01*
X192319346Y-56921095D01*
X192283185Y-56918250D01*
X191879327Y-56918250D01*
X191879302Y-56918251D01*
X191843151Y-56921096D01*
X191715845Y-56958082D01*
X191646655Y-56958082D01*
X191519352Y-56921096D01*
X191519346Y-56921095D01*
X191483185Y-56918250D01*
X191079327Y-56918250D01*
X191079302Y-56918251D01*
X191043151Y-56921096D01*
X190914950Y-56958342D01*
X190845760Y-56958342D01*
X190731251Y-56925073D01*
X190731250Y-56925074D01*
X190731250Y-57015118D01*
X190724820Y-57037012D01*
X190722937Y-57059756D01*
X190714199Y-57073184D01*
X190711565Y-57082157D01*
X190705675Y-57090541D01*
X190700707Y-57097023D01*
X190635624Y-57162107D01*
X190584195Y-57249068D01*
X190579675Y-57254968D01*
X190557229Y-57271379D01*
X190536913Y-57290349D01*
X190529422Y-57291711D01*
X190523274Y-57296207D01*
X190495520Y-57297878D01*
X190468172Y-57302853D01*
X190461132Y-57299949D01*
X190453530Y-57300407D01*
X190429281Y-57286809D01*
X190403582Y-57276208D01*
X190397162Y-57268798D01*
X190392588Y-57266234D01*
X190388856Y-57259213D01*
X190374518Y-57242666D01*
X190326877Y-57162109D01*
X190326876Y-57162107D01*
X190326874Y-57162105D01*
X190326871Y-57162101D01*
X190267569Y-57102799D01*
X190234084Y-57041476D01*
X190231250Y-57015118D01*
X190231250Y-56925074D01*
X190231248Y-56925073D01*
X190116739Y-56958342D01*
X190047549Y-56958342D01*
X189919352Y-56921096D01*
X189919346Y-56921095D01*
X189883185Y-56918250D01*
X189479327Y-56918250D01*
X189479302Y-56918251D01*
X189443154Y-56921095D01*
X189393005Y-56935665D01*
X189323135Y-56935465D01*
X189264466Y-56897522D01*
X189235623Y-56833883D01*
X189239335Y-56781994D01*
X189253904Y-56731848D01*
X189256750Y-56695685D01*
X189256749Y-56291816D01*
X189253904Y-56255652D01*
X189216917Y-56128343D01*
X189216917Y-56059156D01*
X189253904Y-55931848D01*
X189256750Y-55895685D01*
X189256749Y-55491816D01*
X189253904Y-55455652D01*
X189216917Y-55328343D01*
X189216917Y-55259156D01*
X189253904Y-55131848D01*
X189256750Y-55095685D01*
X189256749Y-54691816D01*
X189256710Y-54691326D01*
X189253904Y-54655652D01*
X189228609Y-54568588D01*
X189216917Y-54528343D01*
X189216917Y-54459156D01*
X189253904Y-54331848D01*
X189256750Y-54295685D01*
X189256749Y-53891816D01*
X189253904Y-53855652D01*
X189216657Y-53727448D01*
X189216657Y-53658258D01*
X189249924Y-53543750D01*
X189159881Y-53543750D01*
X189137986Y-53537320D01*
X189115243Y-53535437D01*
X189101813Y-53526699D01*
X189092842Y-53524065D01*
X189084458Y-53518175D01*
X189077979Y-53513210D01*
X189012893Y-53448124D01*
X188925926Y-53396692D01*
X188920031Y-53392175D01*
X188903621Y-53369731D01*
X188884650Y-53349414D01*
X188883287Y-53341921D01*
X188878792Y-53335774D01*
X188877120Y-53308020D01*
X188872146Y-53280672D01*
X188875049Y-53273632D01*
X188874592Y-53266030D01*
X188888190Y-53241779D01*
X188898791Y-53216083D01*
X188906199Y-53209663D01*
X188908765Y-53205088D01*
X188915786Y-53201355D01*
X188932330Y-53187019D01*
X189012893Y-53139376D01*
X189072201Y-53080067D01*
X189133522Y-53046584D01*
X189159881Y-53043750D01*
X189249925Y-53043750D01*
X189249924Y-53043749D01*
X189216657Y-52929240D01*
X189216657Y-52860051D01*
X189253904Y-52731848D01*
X189256750Y-52695685D01*
X189256749Y-52291816D01*
X189253904Y-52255652D01*
X189251786Y-52248362D01*
X189251981Y-52178496D01*
X189283179Y-52126081D01*
X191808120Y-49601140D01*
X191818575Y-49585493D01*
X191834201Y-49562107D01*
X191882352Y-49490045D01*
X191921499Y-49395535D01*
X191933484Y-49366601D01*
X191959550Y-49235556D01*
X191959550Y-49101942D01*
X191959550Y-47811843D01*
X191967960Y-47783201D01*
X191973901Y-47753936D01*
X191977700Y-47750028D01*
X191979235Y-47744804D01*
X192001789Y-47725260D01*
X192022614Y-47703848D01*
X192027923Y-47702615D01*
X192032039Y-47699049D01*
X192061588Y-47694800D01*
X192090674Y-47688048D01*
X192095804Y-47689880D01*
X192101197Y-47689105D01*
X192128355Y-47701507D01*
X192156472Y-47711551D01*
X192160824Y-47716335D01*
X192164753Y-47718130D01*
X192181773Y-47736158D01*
X192186410Y-47742176D01*
X192235624Y-47825393D01*
X192300590Y-47890359D01*
X192305473Y-47896696D01*
X192315351Y-47922097D01*
X192328416Y-47946022D01*
X192329852Y-47959380D01*
X192330799Y-47961815D01*
X192330351Y-47964021D01*
X192331250Y-47972381D01*
X192331250Y-48062424D01*
X192445758Y-48029157D01*
X192514948Y-48029157D01*
X192643147Y-48066403D01*
X192643150Y-48066403D01*
X192643152Y-48066404D01*
X192679315Y-48069250D01*
X193083184Y-48069249D01*
X193119348Y-48066404D01*
X193246656Y-48029417D01*
X193315844Y-48029417D01*
X193443152Y-48066404D01*
X193479315Y-48069250D01*
X193883184Y-48069249D01*
X193919348Y-48066404D01*
X194046656Y-48029417D01*
X194115844Y-48029417D01*
X194243152Y-48066404D01*
X194279315Y-48069250D01*
X194683184Y-48069249D01*
X194719348Y-48066404D01*
X194846656Y-48029417D01*
X194915844Y-48029417D01*
X195043152Y-48066404D01*
X195079315Y-48069250D01*
X195483184Y-48069249D01*
X195519348Y-48066404D01*
X195646656Y-48029417D01*
X195715844Y-48029417D01*
X195843152Y-48066404D01*
X195879315Y-48069250D01*
X196283184Y-48069249D01*
X196319348Y-48066404D01*
X196446656Y-48029417D01*
X196515844Y-48029417D01*
X196643152Y-48066404D01*
X196679315Y-48069250D01*
X197083184Y-48069249D01*
X197119348Y-48066404D01*
X197246656Y-48029417D01*
X197315844Y-48029417D01*
X197443152Y-48066404D01*
X197479315Y-48069250D01*
X197883184Y-48069249D01*
X197919348Y-48066404D01*
X197970062Y-48051670D01*
X198039931Y-48051869D01*
X198098601Y-48089811D01*
X198127445Y-48153449D01*
X198123734Y-48205340D01*
X198112575Y-48243749D01*
X198112575Y-48243750D01*
X199093750Y-48243750D01*
X199593750Y-48243750D01*
X200574924Y-48243750D01*
X200533468Y-48101055D01*
X200533468Y-48101054D01*
X200451479Y-47962418D01*
X200451473Y-47962410D01*
X200337589Y-47848526D01*
X200337581Y-47848520D01*
X200198942Y-47766530D01*
X200198939Y-47766529D01*
X200044274Y-47721594D01*
X200044268Y-47721593D01*
X200008140Y-47718750D01*
X199593750Y-47718750D01*
X199593750Y-48243750D01*
X199093750Y-48243750D01*
X199093750Y-47718750D01*
X198679378Y-47718750D01*
X198679356Y-47718751D01*
X198643230Y-47721594D01*
X198592839Y-47736233D01*
X198522969Y-47736032D01*
X198464300Y-47698089D01*
X198435458Y-47634450D01*
X198439169Y-47582563D01*
X198453904Y-47531848D01*
X198456750Y-47495685D01*
X198456749Y-46166816D01*
X198453904Y-46130652D01*
X198408931Y-45975856D01*
X198397344Y-45956263D01*
X201975000Y-45956263D01*
X201975000Y-46093750D01*
X202950000Y-46093750D01*
X203450000Y-46093750D01*
X204424999Y-46093750D01*
X204424999Y-45956278D01*
X204424998Y-45956263D01*
X204414505Y-45853552D01*
X204359358Y-45687130D01*
X204359356Y-45687125D01*
X204267315Y-45537904D01*
X204143345Y-45413934D01*
X203994124Y-45321893D01*
X203994119Y-45321891D01*
X203827697Y-45266744D01*
X203827690Y-45266743D01*
X203724986Y-45256250D01*
X203450000Y-45256250D01*
X203450000Y-46093750D01*
X202950000Y-46093750D01*
X202950000Y-45256250D01*
X202675029Y-45256250D01*
X202675012Y-45256251D01*
X202572302Y-45266744D01*
X202405880Y-45321891D01*
X202405875Y-45321893D01*
X202256654Y-45413934D01*
X202132684Y-45537904D01*
X202040643Y-45687125D01*
X202040641Y-45687130D01*
X201985494Y-45853552D01*
X201985493Y-45853559D01*
X201975000Y-45956263D01*
X198397344Y-45956263D01*
X198336606Y-45853559D01*
X198326880Y-45837113D01*
X198326871Y-45837101D01*
X198212898Y-45723128D01*
X198212886Y-45723119D01*
X198074146Y-45641070D01*
X198074139Y-45641067D01*
X197919352Y-45596096D01*
X197919346Y-45596095D01*
X197883185Y-45593250D01*
X197479327Y-45593250D01*
X197479302Y-45593251D01*
X197443151Y-45596096D01*
X197315845Y-45633082D01*
X197246655Y-45633082D01*
X197119352Y-45596096D01*
X197119346Y-45596095D01*
X197083185Y-45593250D01*
X196679327Y-45593250D01*
X196679302Y-45593251D01*
X196643151Y-45596096D01*
X196515845Y-45633082D01*
X196446655Y-45633082D01*
X196319352Y-45596096D01*
X196319346Y-45596095D01*
X196283185Y-45593250D01*
X195879327Y-45593250D01*
X195879302Y-45593251D01*
X195843151Y-45596096D01*
X195715845Y-45633082D01*
X195646655Y-45633082D01*
X195519352Y-45596096D01*
X195519346Y-45596095D01*
X195483185Y-45593250D01*
X195079327Y-45593250D01*
X195079302Y-45593251D01*
X195043151Y-45596096D01*
X194915845Y-45633082D01*
X194846655Y-45633082D01*
X194719352Y-45596096D01*
X194719346Y-45596095D01*
X194683192Y-45593250D01*
X194683185Y-45593250D01*
X194432750Y-45593250D01*
X194365711Y-45573565D01*
X194319956Y-45520761D01*
X194308750Y-45469250D01*
X194308750Y-43098780D01*
X194328435Y-43031741D01*
X194345065Y-43011103D01*
X194838100Y-42518067D01*
X194899423Y-42484583D01*
X194925781Y-42481749D01*
X195587502Y-42481749D01*
X195587508Y-42481749D01*
X195690297Y-42471249D01*
X195856834Y-42416064D01*
X196006156Y-42323962D01*
X196130212Y-42199906D01*
X196211785Y-42067653D01*
X196263733Y-42020929D01*
X196317324Y-42008750D01*
X196952886Y-42008750D01*
X197019925Y-42028435D01*
X197058424Y-42067653D01*
X197075534Y-42095392D01*
X197130310Y-42184200D01*
X197132288Y-42187406D01*
X197256344Y-42311462D01*
X197405666Y-42403564D01*
X197572203Y-42458749D01*
X197674991Y-42469250D01*
X198725008Y-42469249D01*
X198725016Y-42469248D01*
X198725019Y-42469248D01*
X198781302Y-42463498D01*
X198827797Y-42458749D01*
X198994334Y-42403564D01*
X199143656Y-42311462D01*
X199267712Y-42187406D01*
X199359814Y-42038084D01*
X199414999Y-41871547D01*
X199425500Y-41768759D01*
X199425499Y-40993742D01*
X199414999Y-40890953D01*
X199359814Y-40724416D01*
X199267712Y-40575094D01*
X199143656Y-40451038D01*
X199140342Y-40448993D01*
X199138546Y-40446998D01*
X199137989Y-40446557D01*
X199138064Y-40446461D01*
X199093618Y-40397047D01*
X199082397Y-40328084D01*
X199110240Y-40264002D01*
X199140348Y-40237915D01*
X199143342Y-40236068D01*
X199267315Y-40112095D01*
X199359356Y-39962874D01*
X199359358Y-39962869D01*
X199414505Y-39796447D01*
X199414506Y-39796440D01*
X199424999Y-39693736D01*
X199425000Y-39693723D01*
X199425000Y-39556250D01*
X196975001Y-39556250D01*
X196975001Y-39693736D01*
X196985494Y-39796447D01*
X197040641Y-39962869D01*
X197040643Y-39962874D01*
X197132684Y-40112095D01*
X197256655Y-40236066D01*
X197256659Y-40236069D01*
X197259656Y-40237918D01*
X197261279Y-40239722D01*
X197262323Y-40240548D01*
X197262181Y-40240726D01*
X197306381Y-40289866D01*
X197317602Y-40358829D01*
X197289759Y-40422911D01*
X197259661Y-40448991D01*
X197256349Y-40451033D01*
X197256343Y-40451038D01*
X197132287Y-40575094D01*
X197058425Y-40694846D01*
X197006477Y-40741571D01*
X196952886Y-40753750D01*
X196317324Y-40753750D01*
X196307533Y-40750875D01*
X196297407Y-40752140D01*
X196274574Y-40741197D01*
X196250285Y-40734065D01*
X196241926Y-40725549D01*
X196234400Y-40721943D01*
X196211785Y-40694846D01*
X196150736Y-40595869D01*
X196132296Y-40528477D01*
X196150737Y-40465675D01*
X196221855Y-40350376D01*
X196221858Y-40350369D01*
X196277005Y-40183947D01*
X196277006Y-40183940D01*
X196287499Y-40081236D01*
X196287500Y-40081223D01*
X196287500Y-39931250D01*
X195211500Y-39931250D01*
X195144461Y-39911565D01*
X195098706Y-39858761D01*
X195087500Y-39807250D01*
X195087500Y-39681250D01*
X194961500Y-39681250D01*
X194894461Y-39661565D01*
X194848706Y-39608761D01*
X194837500Y-39557250D01*
X194837500Y-39431250D01*
X195337500Y-39431250D01*
X196287499Y-39431250D01*
X196287499Y-39281278D01*
X196287498Y-39281263D01*
X196277005Y-39178552D01*
X196221858Y-39012130D01*
X196221853Y-39012119D01*
X196202481Y-38980713D01*
X196202479Y-38980711D01*
X196164269Y-38918763D01*
X196975000Y-38918763D01*
X196975000Y-39056250D01*
X197950000Y-39056250D01*
X198450000Y-39056250D01*
X199424999Y-39056250D01*
X199424999Y-38918778D01*
X199424998Y-38918763D01*
X199414505Y-38816052D01*
X199359358Y-38649630D01*
X199359356Y-38649625D01*
X199267315Y-38500404D01*
X199143345Y-38376434D01*
X198994124Y-38284393D01*
X198994119Y-38284391D01*
X198827697Y-38229244D01*
X198827690Y-38229243D01*
X198724986Y-38218750D01*
X198450000Y-38218750D01*
X198450000Y-39056250D01*
X197950000Y-39056250D01*
X197950000Y-38218750D01*
X197675029Y-38218750D01*
X197675012Y-38218751D01*
X197572302Y-38229244D01*
X197405880Y-38284391D01*
X197405875Y-38284393D01*
X197256654Y-38376434D01*
X197132684Y-38500404D01*
X197040643Y-38649625D01*
X197040641Y-38649630D01*
X196985494Y-38816052D01*
X196985493Y-38816059D01*
X196975000Y-38918763D01*
X196164269Y-38918763D01*
X196129815Y-38862904D01*
X196005845Y-38738934D01*
X195856624Y-38646893D01*
X195856619Y-38646891D01*
X195690197Y-38591744D01*
X195690190Y-38591743D01*
X195587486Y-38581250D01*
X195337500Y-38581250D01*
X195337500Y-39431250D01*
X194837500Y-39431250D01*
X194837500Y-38581250D01*
X194587529Y-38581250D01*
X194587512Y-38581251D01*
X194484802Y-38591744D01*
X194318380Y-38646891D01*
X194318375Y-38646893D01*
X194169157Y-38738932D01*
X194075534Y-38832555D01*
X194014210Y-38866039D01*
X193944519Y-38861055D01*
X193900172Y-38832554D01*
X193806157Y-38738539D01*
X193806156Y-38738538D01*
X193713388Y-38681319D01*
X193656836Y-38646437D01*
X193656831Y-38646435D01*
X193655362Y-38645948D01*
X193490297Y-38591251D01*
X193490295Y-38591250D01*
X193387510Y-38580750D01*
X192387498Y-38580750D01*
X192387480Y-38580751D01*
X192284703Y-38591250D01*
X192284700Y-38591251D01*
X192118168Y-38646435D01*
X192118163Y-38646437D01*
X191968842Y-38738539D01*
X191844787Y-38862594D01*
X191763215Y-38994846D01*
X191711267Y-39041571D01*
X191657676Y-39053750D01*
X191061999Y-39053750D01*
X190994960Y-39034065D01*
X190949205Y-38981261D01*
X190937999Y-38929750D01*
X190937999Y-38918748D01*
X190937998Y-38918731D01*
X190927499Y-38815953D01*
X190927498Y-38815950D01*
X190901977Y-38738934D01*
X190872314Y-38649416D01*
X190780212Y-38500094D01*
X190656156Y-38376038D01*
X190506834Y-38283936D01*
X190340297Y-38228751D01*
X190340295Y-38228750D01*
X190237510Y-38218250D01*
X189187498Y-38218250D01*
X189187480Y-38218251D01*
X189084703Y-38228750D01*
X189084700Y-38228751D01*
X188918168Y-38283935D01*
X188918163Y-38283937D01*
X188768842Y-38376039D01*
X188644789Y-38500092D01*
X188552687Y-38649413D01*
X188552685Y-38649418D01*
X188552615Y-38649630D01*
X188497501Y-38815953D01*
X188497501Y-38815954D01*
X188497500Y-38815954D01*
X188487000Y-38918733D01*
X188487000Y-39693751D01*
X188487001Y-39693769D01*
X188497500Y-39796546D01*
X188497501Y-39796549D01*
X188535614Y-39911565D01*
X188552686Y-39963084D01*
X188644788Y-40112406D01*
X188768844Y-40236462D01*
X188771200Y-40237915D01*
X188772153Y-40238503D01*
X188773945Y-40240496D01*
X188774511Y-40240943D01*
X188774434Y-40241039D01*
X188818879Y-40290449D01*
X188830103Y-40359411D01*
X188802261Y-40423494D01*
X188772165Y-40449576D01*
X188769160Y-40451429D01*
X188769155Y-40451433D01*
X188645184Y-40575404D01*
X188553143Y-40724625D01*
X188553141Y-40724630D01*
X188497994Y-40891052D01*
X188497993Y-40891059D01*
X188487500Y-40993763D01*
X188487500Y-41131250D01*
X190937499Y-41131250D01*
X190937499Y-40993778D01*
X190937498Y-40993763D01*
X190927005Y-40891052D01*
X190871858Y-40724630D01*
X190871856Y-40724625D01*
X190779815Y-40575404D01*
X190724842Y-40520431D01*
X190691357Y-40459108D01*
X190696341Y-40389416D01*
X190738213Y-40333483D01*
X190803677Y-40309066D01*
X190812523Y-40308750D01*
X191657676Y-40308750D01*
X191667466Y-40311624D01*
X191677593Y-40310360D01*
X191700425Y-40321302D01*
X191724715Y-40328435D01*
X191733073Y-40336950D01*
X191740600Y-40340557D01*
X191763215Y-40367654D01*
X191824263Y-40466630D01*
X191842703Y-40534022D01*
X191824263Y-40596823D01*
X191753143Y-40712125D01*
X191753141Y-40712130D01*
X191697994Y-40878552D01*
X191697993Y-40878559D01*
X191687500Y-40981263D01*
X191687500Y-41131250D01*
X192763500Y-41131250D01*
X192830539Y-41150935D01*
X192876294Y-41203739D01*
X192887500Y-41255250D01*
X192887500Y-41381250D01*
X193013500Y-41381250D01*
X193080539Y-41400935D01*
X193126294Y-41453739D01*
X193137500Y-41505250D01*
X193137500Y-42434194D01*
X193129915Y-42476896D01*
X193124688Y-42491146D01*
X193124389Y-42491548D01*
X193122834Y-42495896D01*
X193077866Y-42604458D01*
X193077862Y-42604472D01*
X193054625Y-42721296D01*
X193054624Y-42721304D01*
X193053750Y-42725692D01*
X193053750Y-45469250D01*
X193034065Y-45536289D01*
X192981261Y-45582044D01*
X192929750Y-45593250D01*
X192679327Y-45593250D01*
X192679302Y-45593251D01*
X192643151Y-45596096D01*
X192514950Y-45633342D01*
X192445760Y-45633342D01*
X192331251Y-45600073D01*
X192331250Y-45600074D01*
X192331250Y-45690118D01*
X192324820Y-45712012D01*
X192322937Y-45734756D01*
X192314199Y-45748184D01*
X192311565Y-45757157D01*
X192305675Y-45765541D01*
X192300707Y-45772023D01*
X192235624Y-45837107D01*
X192184195Y-45924068D01*
X192179675Y-45929968D01*
X192157229Y-45946379D01*
X192136913Y-45965349D01*
X192129422Y-45966711D01*
X192123274Y-45971207D01*
X192095520Y-45972878D01*
X192068172Y-45977853D01*
X192061132Y-45974949D01*
X192053530Y-45975407D01*
X192029281Y-45961809D01*
X192003582Y-45951208D01*
X191997162Y-45943798D01*
X191992588Y-45941234D01*
X191988856Y-45934213D01*
X191974518Y-45917666D01*
X191960002Y-45893121D01*
X191926876Y-45837107D01*
X191926874Y-45837105D01*
X191926871Y-45837101D01*
X191867569Y-45777799D01*
X191834084Y-45716476D01*
X191831250Y-45690118D01*
X191831250Y-45600074D01*
X191831248Y-45600073D01*
X191716739Y-45633342D01*
X191647549Y-45633342D01*
X191519352Y-45596096D01*
X191519346Y-45596095D01*
X191483185Y-45593250D01*
X191079327Y-45593250D01*
X191079302Y-45593251D01*
X191043152Y-45596095D01*
X190980185Y-45614389D01*
X190910316Y-45614188D01*
X190857911Y-45582993D01*
X189869210Y-44594291D01*
X189869206Y-44594288D01*
X189766438Y-44525620D01*
X189766425Y-44525613D01*
X189732984Y-44511762D01*
X189652234Y-44478314D01*
X189652226Y-44478312D01*
X189531006Y-44454200D01*
X189531002Y-44454200D01*
X186299000Y-44454200D01*
X186231961Y-44434515D01*
X186186206Y-44381711D01*
X186175000Y-44330200D01*
X186175000Y-44318750D01*
X183725001Y-44318750D01*
X183725001Y-44330200D01*
X183722450Y-44338885D01*
X183723739Y-44347847D01*
X183712760Y-44371887D01*
X183705316Y-44397239D01*
X183698475Y-44403166D01*
X183694714Y-44411403D01*
X183672479Y-44425692D01*
X183652512Y-44442994D01*
X183641997Y-44445281D01*
X183635936Y-44449177D01*
X183601001Y-44454200D01*
X183405481Y-44454200D01*
X183338442Y-44434515D01*
X183317800Y-44417881D01*
X183011818Y-44111899D01*
X182978333Y-44050576D01*
X182975499Y-44024226D01*
X182975499Y-43681263D01*
X183725000Y-43681263D01*
X183725000Y-43818750D01*
X184700000Y-43818750D01*
X185200000Y-43818750D01*
X186174999Y-43818750D01*
X186174999Y-43681278D01*
X186174998Y-43681263D01*
X186164505Y-43578552D01*
X186109358Y-43412130D01*
X186109356Y-43412125D01*
X186017315Y-43262904D01*
X185893345Y-43138934D01*
X185744124Y-43046893D01*
X185744119Y-43046891D01*
X185577697Y-42991744D01*
X185577690Y-42991743D01*
X185474986Y-42981250D01*
X185200000Y-42981250D01*
X185200000Y-43818750D01*
X184700000Y-43818750D01*
X184700000Y-42981250D01*
X184425029Y-42981250D01*
X184425012Y-42981251D01*
X184322302Y-42991744D01*
X184155880Y-43046891D01*
X184155875Y-43046893D01*
X184006654Y-43138934D01*
X183882684Y-43262904D01*
X183790643Y-43412125D01*
X183790641Y-43412130D01*
X183735494Y-43578552D01*
X183735493Y-43578559D01*
X183725000Y-43681263D01*
X182975499Y-43681263D01*
X182975499Y-43449992D01*
X182971631Y-43412130D01*
X182964999Y-43347203D01*
X182964998Y-43347200D01*
X182947664Y-43294891D01*
X182909814Y-43180666D01*
X182817712Y-43031344D01*
X182693656Y-42907288D01*
X182544334Y-42815186D01*
X182377797Y-42760001D01*
X182377795Y-42760000D01*
X182275010Y-42749500D01*
X181274998Y-42749500D01*
X181274980Y-42749501D01*
X181172203Y-42760000D01*
X181172200Y-42760001D01*
X181005668Y-42815185D01*
X181005663Y-42815187D01*
X180856342Y-42907289D01*
X180786054Y-42977576D01*
X180724730Y-43011061D01*
X180655039Y-43006075D01*
X180629483Y-42992996D01*
X180560435Y-42946859D01*
X180560422Y-42946852D01*
X180414751Y-42886514D01*
X180414739Y-42886511D01*
X180260095Y-42855750D01*
X180260092Y-42855750D01*
X180102408Y-42855750D01*
X180102405Y-42855750D01*
X179947760Y-42886511D01*
X179947748Y-42886514D01*
X179802077Y-42946852D01*
X179802064Y-42946859D01*
X179670961Y-43034460D01*
X179670957Y-43034463D01*
X179559463Y-43145957D01*
X179559460Y-43145961D01*
X179471859Y-43277064D01*
X179471852Y-43277077D01*
X179411514Y-43422748D01*
X179411511Y-43422760D01*
X179380750Y-43577403D01*
X179380750Y-43735096D01*
X179411511Y-43889739D01*
X179411514Y-43889751D01*
X179471852Y-44035422D01*
X179471859Y-44035435D01*
X179559460Y-44166538D01*
X179559463Y-44166542D01*
X179670957Y-44278036D01*
X179670961Y-44278039D01*
X179802064Y-44365640D01*
X179802077Y-44365647D01*
X179928183Y-44417881D01*
X179947753Y-44425987D01*
X180102403Y-44456749D01*
X180102406Y-44456750D01*
X180102408Y-44456750D01*
X180260094Y-44456750D01*
X180260095Y-44456749D01*
X180414747Y-44425987D01*
X180478841Y-44399438D01*
X180487016Y-44397812D01*
X180491357Y-44395023D01*
X180526292Y-44390000D01*
X180599146Y-44390000D01*
X180666185Y-44409685D01*
X180704684Y-44448903D01*
X180732287Y-44493654D01*
X180732289Y-44493657D01*
X180825951Y-44587319D01*
X180859436Y-44648642D01*
X180854452Y-44718334D01*
X180825951Y-44762681D01*
X180732289Y-44856342D01*
X180640187Y-45005663D01*
X180640185Y-45005668D01*
X180619251Y-45068844D01*
X180585001Y-45172203D01*
X180585001Y-45172204D01*
X180585000Y-45172204D01*
X180574500Y-45274983D01*
X180574500Y-45900001D01*
X180574501Y-45900019D01*
X180585000Y-46002796D01*
X180585001Y-46002799D01*
X180621356Y-46112509D01*
X180640186Y-46169334D01*
X180732288Y-46318656D01*
X180856344Y-46442712D01*
X181005666Y-46534814D01*
X181172203Y-46589999D01*
X181274991Y-46600500D01*
X182275008Y-46600499D01*
X182275016Y-46600498D01*
X182275019Y-46600498D01*
X182341077Y-46593750D01*
X182377797Y-46589999D01*
X182544334Y-46534814D01*
X182693656Y-46442712D01*
X182817712Y-46318656D01*
X182817715Y-46318650D01*
X182822193Y-46312989D01*
X182824716Y-46314984D01*
X182866189Y-46277855D01*
X182919521Y-46265800D01*
X183600501Y-46265800D01*
X183667540Y-46285485D01*
X183713295Y-46338289D01*
X183724501Y-46389800D01*
X183724501Y-46531268D01*
X183735000Y-46634046D01*
X183735001Y-46634049D01*
X183767202Y-46731223D01*
X183790186Y-46800584D01*
X183882288Y-46949906D01*
X184006344Y-47073962D01*
X184154783Y-47165519D01*
X184201507Y-47217467D01*
X184212730Y-47286430D01*
X184204247Y-47318510D01*
X184174014Y-47391498D01*
X184174011Y-47391510D01*
X184143250Y-47546153D01*
X184143250Y-47703846D01*
X184174011Y-47858489D01*
X184174014Y-47858501D01*
X184234352Y-48004172D01*
X184234359Y-48004185D01*
X184321960Y-48135288D01*
X184321963Y-48135292D01*
X184433457Y-48246786D01*
X184433461Y-48246789D01*
X184564564Y-48334390D01*
X184564577Y-48334397D01*
X184669061Y-48377675D01*
X184710253Y-48394737D01*
X184827078Y-48417975D01*
X184864903Y-48425499D01*
X184864906Y-48425500D01*
X184864908Y-48425500D01*
X185022594Y-48425500D01*
X185022595Y-48425499D01*
X185177247Y-48394737D01*
X185322929Y-48334394D01*
X185454039Y-48246789D01*
X185565539Y-48135289D01*
X185653144Y-48004179D01*
X185713487Y-47858497D01*
X185744250Y-47703842D01*
X185744250Y-47546158D01*
X185744250Y-47546155D01*
X185744249Y-47546153D01*
X185741403Y-47531845D01*
X185713487Y-47391503D01*
X185685642Y-47324280D01*
X185678174Y-47254814D01*
X185709449Y-47192335D01*
X185738861Y-47170948D01*
X185738187Y-47169855D01*
X185744332Y-47166064D01*
X185744334Y-47166064D01*
X185893656Y-47073962D01*
X186017712Y-46949906D01*
X186109814Y-46800584D01*
X186164999Y-46634047D01*
X186175500Y-46531259D01*
X186175499Y-45833199D01*
X186195183Y-45766161D01*
X186247987Y-45720406D01*
X186299499Y-45709200D01*
X188893873Y-45709200D01*
X188960912Y-45728885D01*
X189006667Y-45781689D01*
X189016611Y-45850847D01*
X189000606Y-45896320D01*
X188953567Y-45975859D01*
X188953567Y-45975860D01*
X188908596Y-46130647D01*
X188908595Y-46130653D01*
X188905750Y-46166807D01*
X188905750Y-47495672D01*
X188905751Y-47495697D01*
X188908595Y-47531845D01*
X188923165Y-47581994D01*
X188922965Y-47651863D01*
X188885022Y-47710533D01*
X188821384Y-47739376D01*
X188769493Y-47735664D01*
X188719352Y-47721096D01*
X188719346Y-47721095D01*
X188683185Y-47718250D01*
X187354327Y-47718250D01*
X187354302Y-47718251D01*
X187318151Y-47721096D01*
X187163360Y-47766067D01*
X187163353Y-47766070D01*
X187024613Y-47848119D01*
X187024601Y-47848128D01*
X186910628Y-47962101D01*
X186910619Y-47962113D01*
X186828570Y-48100853D01*
X186828567Y-48100860D01*
X186783596Y-48255647D01*
X186783595Y-48255653D01*
X186780750Y-48291807D01*
X186780750Y-48695672D01*
X186780751Y-48695697D01*
X186783596Y-48731848D01*
X186820582Y-48859154D01*
X186820582Y-48928344D01*
X186783596Y-49055647D01*
X186783595Y-49055653D01*
X186780750Y-49091807D01*
X186780750Y-49495672D01*
X186780751Y-49495697D01*
X186783596Y-49531848D01*
X186820582Y-49659154D01*
X186820984Y-49674738D01*
X186825322Y-49686998D01*
X186822040Y-49715623D01*
X186822209Y-49722154D01*
X186821474Y-49725275D01*
X186783596Y-49855652D01*
X186780750Y-49891815D01*
X186780750Y-49898325D01*
X186777808Y-49910827D01*
X186765041Y-49933294D01*
X186755838Y-49957440D01*
X186748062Y-49963174D01*
X186743289Y-49971575D01*
X186720404Y-49983572D01*
X186699607Y-49998911D01*
X186689693Y-49999673D01*
X186681408Y-50004017D01*
X186659003Y-50002032D01*
X186632913Y-50004039D01*
X186610094Y-49999500D01*
X186610092Y-49999500D01*
X186452408Y-49999500D01*
X186452405Y-49999500D01*
X186297760Y-50030261D01*
X186297748Y-50030264D01*
X186152077Y-50090602D01*
X186152064Y-50090609D01*
X186020961Y-50178210D01*
X185928433Y-50270738D01*
X185867109Y-50304222D01*
X185797418Y-50299238D01*
X185741485Y-50257366D01*
X185717394Y-50195655D01*
X185714999Y-50172203D01*
X185659814Y-50005666D01*
X185567712Y-49856344D01*
X185443656Y-49732288D01*
X185294334Y-49640186D01*
X185127797Y-49585001D01*
X185127795Y-49585000D01*
X185025010Y-49574500D01*
X184249998Y-49574500D01*
X184249980Y-49574501D01*
X184147203Y-49585000D01*
X184147200Y-49585001D01*
X183980668Y-49640185D01*
X183980663Y-49640187D01*
X183831342Y-49732289D01*
X183707288Y-49856343D01*
X183707283Y-49856349D01*
X183705241Y-49859661D01*
X183703247Y-49861453D01*
X183702807Y-49862011D01*
X183702711Y-49861935D01*
X183653291Y-49906383D01*
X183584328Y-49917602D01*
X183520247Y-49889755D01*
X183494168Y-49859656D01*
X183492319Y-49856659D01*
X183492316Y-49856655D01*
X183368345Y-49732684D01*
X183219124Y-49640643D01*
X183219119Y-49640641D01*
X183052697Y-49585494D01*
X183052690Y-49585493D01*
X182949986Y-49575000D01*
X182812500Y-49575000D01*
X182812500Y-52024999D01*
X182949972Y-52024999D01*
X182949986Y-52024998D01*
X183052697Y-52014505D01*
X183219119Y-51959358D01*
X183219124Y-51959356D01*
X183368345Y-51867315D01*
X183492318Y-51743342D01*
X183494165Y-51740348D01*
X183495969Y-51738724D01*
X183496798Y-51737677D01*
X183496976Y-51737818D01*
X183546110Y-51693621D01*
X183615073Y-51682396D01*
X183679156Y-51710236D01*
X183705243Y-51740341D01*
X183707288Y-51743656D01*
X183707289Y-51743657D01*
X183831344Y-51867712D01*
X183951096Y-51941575D01*
X183997821Y-51993523D01*
X184010000Y-52047114D01*
X184010000Y-52143057D01*
X184032397Y-52255653D01*
X184034114Y-52264285D01*
X184057710Y-52321250D01*
X184081417Y-52378483D01*
X184132081Y-52454307D01*
X184142171Y-52469408D01*
X184150089Y-52481259D01*
X184150091Y-52481261D01*
X184562589Y-52893758D01*
X184649992Y-52981161D01*
X184649994Y-52981163D01*
X184649996Y-52981164D01*
X184752756Y-53049826D01*
X184752760Y-53049828D01*
X184752767Y-53049833D01*
X184830025Y-53081834D01*
X184830026Y-53081834D01*
X184830027Y-53081835D01*
X184854102Y-53091807D01*
X184866965Y-53097135D01*
X184866969Y-53097135D01*
X184866970Y-53097136D01*
X184988194Y-53121250D01*
X184988197Y-53121250D01*
X185111803Y-53121250D01*
X186960035Y-53121250D01*
X186975936Y-53125600D01*
X186990529Y-53125058D01*
X187023156Y-53138518D01*
X187105166Y-53187018D01*
X187152849Y-53238087D01*
X187165353Y-53306828D01*
X187138708Y-53371418D01*
X187105166Y-53400482D01*
X187023156Y-53448982D01*
X186960035Y-53466250D01*
X179817531Y-53466250D01*
X179750492Y-53446565D01*
X179729850Y-53429931D01*
X177624905Y-51324986D01*
X181475001Y-51324986D01*
X181485494Y-51427697D01*
X181540641Y-51594119D01*
X181540643Y-51594124D01*
X181632684Y-51743345D01*
X181756654Y-51867315D01*
X181905875Y-51959356D01*
X181905880Y-51959358D01*
X182072302Y-52014505D01*
X182072309Y-52014506D01*
X182175019Y-52024999D01*
X182312499Y-52024999D01*
X182312500Y-52024998D01*
X182312500Y-51050000D01*
X181475001Y-51050000D01*
X181475001Y-51324986D01*
X177624905Y-51324986D01*
X176651319Y-50351400D01*
X176617834Y-50290077D01*
X176616214Y-50275013D01*
X181475000Y-50275013D01*
X181475000Y-50550000D01*
X182312500Y-50550000D01*
X182312500Y-49575000D01*
X182175027Y-49575000D01*
X182175012Y-49575001D01*
X182072302Y-49585494D01*
X181905880Y-49640641D01*
X181905875Y-49640643D01*
X181756654Y-49732684D01*
X181632684Y-49856654D01*
X181540643Y-50005875D01*
X181540641Y-50005880D01*
X181485494Y-50172302D01*
X181485493Y-50172309D01*
X181475000Y-50275013D01*
X176616214Y-50275013D01*
X176615000Y-50263719D01*
X176615000Y-48708853D01*
X176634685Y-48641814D01*
X176687489Y-48596059D01*
X176699982Y-48591152D01*
X176756834Y-48572314D01*
X176906156Y-48480212D01*
X177030212Y-48356156D01*
X177122314Y-48206834D01*
X177177499Y-48040297D01*
X177188000Y-47937509D01*
X177187999Y-47312492D01*
X177186876Y-47301502D01*
X177177499Y-47209703D01*
X177177498Y-47209700D01*
X177164657Y-47170948D01*
X177122314Y-47043166D01*
X177030212Y-46893844D01*
X176936549Y-46800181D01*
X176903064Y-46738858D01*
X176908048Y-46669166D01*
X176936549Y-46624819D01*
X176971370Y-46589998D01*
X177030212Y-46531156D01*
X177122314Y-46381834D01*
X177177499Y-46215297D01*
X177188000Y-46112509D01*
X177187999Y-45487492D01*
X177177499Y-45384703D01*
X177122314Y-45218166D01*
X177030212Y-45068844D01*
X176906156Y-44944788D01*
X176762765Y-44856344D01*
X176756836Y-44852687D01*
X176756831Y-44852685D01*
X176755362Y-44852198D01*
X176590297Y-44797501D01*
X176590295Y-44797500D01*
X176487516Y-44787000D01*
X176487509Y-44787000D01*
X175875098Y-44787000D01*
X175845657Y-44778355D01*
X175815671Y-44771832D01*
X175810655Y-44768077D01*
X175808059Y-44767315D01*
X175787417Y-44750681D01*
X175736819Y-44700083D01*
X175703334Y-44638760D01*
X175700500Y-44612402D01*
X175700500Y-42230749D01*
X175720185Y-42163710D01*
X175772989Y-42117955D01*
X175824500Y-42106749D01*
X176197871Y-42106749D01*
X176197872Y-42106749D01*
X176257483Y-42100341D01*
X176257489Y-42100338D01*
X176265025Y-42098558D01*
X176265321Y-42099811D01*
X176327063Y-42095392D01*
X176340655Y-42099382D01*
X176342627Y-42099848D01*
X176402155Y-42106249D01*
X176402172Y-42106250D01*
X176450000Y-42106250D01*
X176450000Y-42068944D01*
X176469685Y-42001905D01*
X176499690Y-41969676D01*
X176507546Y-41963796D01*
X176593796Y-41848581D01*
X176644091Y-41713733D01*
X176650500Y-41654123D01*
X176650499Y-39308378D01*
X176644091Y-39248767D01*
X176637804Y-39231912D01*
X176593797Y-39113921D01*
X176593793Y-39113914D01*
X176507547Y-38998705D01*
X176507546Y-38998704D01*
X176499685Y-38992819D01*
X176457816Y-38936883D01*
X176450000Y-38893555D01*
X176450000Y-38856250D01*
X176402155Y-38856250D01*
X176342624Y-38862651D01*
X176335073Y-38864436D01*
X176334684Y-38862792D01*
X176274348Y-38867103D01*
X176257614Y-38862189D01*
X176257491Y-38862160D01*
X176257483Y-38862159D01*
X176197873Y-38855750D01*
X176197863Y-38855750D01*
X175602129Y-38855750D01*
X175602123Y-38855751D01*
X175542520Y-38862158D01*
X175534974Y-38863942D01*
X175534628Y-38862480D01*
X175473622Y-38866834D01*
X175458600Y-38862422D01*
X175457482Y-38862158D01*
X175397882Y-38855751D01*
X175397873Y-38855750D01*
X175397863Y-38855750D01*
X174802129Y-38855750D01*
X174802123Y-38855751D01*
X174742520Y-38862158D01*
X174734974Y-38863942D01*
X174734628Y-38862480D01*
X174673622Y-38866834D01*
X174658600Y-38862422D01*
X174657482Y-38862158D01*
X174597882Y-38855751D01*
X174597873Y-38855750D01*
X174597863Y-38855750D01*
X174002129Y-38855750D01*
X174002123Y-38855751D01*
X173942520Y-38862158D01*
X173934974Y-38863942D01*
X173934628Y-38862480D01*
X173873622Y-38866834D01*
X173858600Y-38862422D01*
X173857482Y-38862158D01*
X173797882Y-38855751D01*
X173797873Y-38855750D01*
X173797863Y-38855750D01*
X173202129Y-38855750D01*
X173202123Y-38855751D01*
X173142516Y-38862158D01*
X173007671Y-38912452D01*
X173007664Y-38912456D01*
X172892455Y-38998702D01*
X172892452Y-38998705D01*
X172806206Y-39113914D01*
X172806202Y-39113921D01*
X172779380Y-39185837D01*
X172737509Y-39241771D01*
X172672045Y-39266188D01*
X172603772Y-39251337D01*
X172562880Y-39215389D01*
X172480109Y-39101464D01*
X172480105Y-39101459D01*
X172329786Y-38951140D01*
X172157817Y-38826199D01*
X172145202Y-38819771D01*
X172094408Y-38771796D01*
X172077500Y-38709288D01*
X172077500Y-37753211D01*
X172097185Y-37686172D01*
X172145210Y-37642724D01*
X172157804Y-37636307D01*
X172157816Y-37636301D01*
X172329792Y-37511354D01*
X172480104Y-37361042D01*
X172480106Y-37361038D01*
X172480109Y-37361036D01*
X172605048Y-37189070D01*
X172605047Y-37189070D01*
X172605051Y-37189066D01*
X172701557Y-36999662D01*
X172767246Y-36797493D01*
X172800500Y-36587537D01*
X172800500Y-35939000D01*
X172820185Y-35871961D01*
X172872989Y-35826206D01*
X172924500Y-35815000D01*
X177275500Y-35815000D01*
X177342539Y-35834685D01*
X177388294Y-35887489D01*
X177399500Y-35939000D01*
X177399500Y-36587536D01*
X177432753Y-36797489D01*
X177498444Y-36999664D01*
X177594951Y-37189070D01*
X177719890Y-37361036D01*
X177719896Y-37361042D01*
X177870208Y-37511354D01*
X178042184Y-37636301D01*
X178042188Y-37636303D01*
X178042195Y-37636307D01*
X178054790Y-37642724D01*
X178105588Y-37690696D01*
X178122500Y-37753211D01*
X178122500Y-38709288D01*
X178102815Y-38776327D01*
X178054798Y-38819771D01*
X178042182Y-38826199D01*
X177870213Y-38951140D01*
X177719894Y-39101459D01*
X177636767Y-39215874D01*
X177581437Y-39258539D01*
X177511823Y-39264518D01*
X177450028Y-39231912D01*
X177420267Y-39186321D01*
X177393354Y-39114163D01*
X177393350Y-39114156D01*
X177307190Y-38999062D01*
X177307187Y-38999059D01*
X177192093Y-38912899D01*
X177192086Y-38912895D01*
X177057379Y-38862653D01*
X177057372Y-38862651D01*
X176997844Y-38856250D01*
X176950000Y-38856250D01*
X176950000Y-42106250D01*
X176997828Y-42106250D01*
X176997844Y-42106249D01*
X177057372Y-42099848D01*
X177057379Y-42099846D01*
X177192086Y-42049604D01*
X177192093Y-42049600D01*
X177307187Y-41963440D01*
X177307190Y-41963437D01*
X177393350Y-41848343D01*
X177393355Y-41848334D01*
X177420267Y-41776179D01*
X177462137Y-41720245D01*
X177527601Y-41695827D01*
X177595875Y-41710678D01*
X177636767Y-41746626D01*
X177719890Y-41861035D01*
X177719894Y-41861040D01*
X177870213Y-42011359D01*
X178042179Y-42136298D01*
X178042181Y-42136299D01*
X178042184Y-42136301D01*
X178231588Y-42232807D01*
X178433757Y-42298496D01*
X178643713Y-42331750D01*
X178643714Y-42331750D01*
X178856286Y-42331750D01*
X178856287Y-42331750D01*
X179066243Y-42298496D01*
X179268412Y-42232807D01*
X179457816Y-42136301D01*
X179507990Y-42099848D01*
X179629786Y-42011359D01*
X179629788Y-42011356D01*
X179629792Y-42011354D01*
X179780104Y-41861042D01*
X179780106Y-41861038D01*
X179780109Y-41861036D01*
X179847168Y-41768736D01*
X188487501Y-41768736D01*
X188497994Y-41871447D01*
X188553141Y-42037869D01*
X188553143Y-42037874D01*
X188645184Y-42187095D01*
X188769154Y-42311065D01*
X188918375Y-42403106D01*
X188918380Y-42403108D01*
X189084802Y-42458255D01*
X189084809Y-42458256D01*
X189187519Y-42468749D01*
X189462499Y-42468749D01*
X189962500Y-42468749D01*
X190237472Y-42468749D01*
X190237486Y-42468748D01*
X190340197Y-42458255D01*
X190506619Y-42403108D01*
X190506624Y-42403106D01*
X190655845Y-42311065D01*
X190779815Y-42187095D01*
X190871856Y-42037874D01*
X190871858Y-42037869D01*
X190927005Y-41871447D01*
X190927006Y-41871440D01*
X190936222Y-41781236D01*
X191687501Y-41781236D01*
X191697994Y-41883947D01*
X191753141Y-42050369D01*
X191753143Y-42050374D01*
X191845184Y-42199595D01*
X191969154Y-42323565D01*
X192118375Y-42415606D01*
X192118380Y-42415608D01*
X192284802Y-42470755D01*
X192284809Y-42470756D01*
X192387519Y-42481249D01*
X192637499Y-42481249D01*
X192637500Y-42481248D01*
X192637500Y-41631250D01*
X191687501Y-41631250D01*
X191687501Y-41781236D01*
X190936222Y-41781236D01*
X190937499Y-41768736D01*
X190937500Y-41768723D01*
X190937500Y-41631250D01*
X189962500Y-41631250D01*
X189962500Y-42468749D01*
X189462499Y-42468749D01*
X189462500Y-42468748D01*
X189462500Y-41631250D01*
X188487501Y-41631250D01*
X188487501Y-41768736D01*
X179847168Y-41768736D01*
X179847177Y-41768723D01*
X179905051Y-41689066D01*
X180001557Y-41499662D01*
X180067246Y-41297493D01*
X180100500Y-41087537D01*
X180100500Y-39874963D01*
X180067246Y-39665007D01*
X180001557Y-39462838D01*
X179905051Y-39273434D01*
X179905049Y-39273431D01*
X179905048Y-39273429D01*
X179780109Y-39101463D01*
X179629786Y-38951140D01*
X179457817Y-38826199D01*
X179445202Y-38819771D01*
X179394408Y-38771796D01*
X179377500Y-38709288D01*
X179377500Y-37753211D01*
X179397185Y-37686172D01*
X179445210Y-37642724D01*
X179457804Y-37636307D01*
X179457816Y-37636301D01*
X179629792Y-37511354D01*
X179780104Y-37361042D01*
X179780106Y-37361038D01*
X179780109Y-37361036D01*
X179905048Y-37189070D01*
X179905047Y-37189070D01*
X179905051Y-37189066D01*
X180001557Y-36999662D01*
X180067246Y-36797493D01*
X180100500Y-36587537D01*
X180100500Y-35374963D01*
X180067246Y-35165007D01*
X180001557Y-34962838D01*
X179905051Y-34773434D01*
X179905049Y-34773431D01*
X179905048Y-34773429D01*
X179780109Y-34601463D01*
X179629786Y-34451140D01*
X179457820Y-34326201D01*
X179268414Y-34229694D01*
X179268413Y-34229693D01*
X179268412Y-34229693D01*
X179066243Y-34164004D01*
X179066241Y-34164003D01*
X179066240Y-34164003D01*
X178904957Y-34138458D01*
X178856287Y-34130750D01*
X178643713Y-34130750D01*
X178595042Y-34138458D01*
X178433760Y-34164003D01*
X178231585Y-34229694D01*
X178042179Y-34326201D01*
X177870213Y-34451140D01*
X177870209Y-34451144D01*
X177797673Y-34523681D01*
X177736350Y-34557166D01*
X177709992Y-34560000D01*
X172490008Y-34560000D01*
X172422969Y-34540315D01*
X172402327Y-34523681D01*
X172329786Y-34451140D01*
X172157820Y-34326201D01*
X171968414Y-34229694D01*
X171968413Y-34229693D01*
X171968412Y-34229693D01*
X171766243Y-34164004D01*
X171766241Y-34164003D01*
X171766240Y-34164003D01*
X171604957Y-34138458D01*
X171556287Y-34130750D01*
X171343713Y-34130750D01*
X171295042Y-34138458D01*
X171133760Y-34164003D01*
X170931585Y-34229694D01*
X170742179Y-34326201D01*
X170570213Y-34451140D01*
X170419890Y-34601463D01*
X170294951Y-34773429D01*
X170198444Y-34962835D01*
X170132753Y-35165010D01*
X170099500Y-35374963D01*
X170099500Y-36587536D01*
X170132753Y-36797489D01*
X170198444Y-36999664D01*
X170294951Y-37189070D01*
X170419890Y-37361036D01*
X170419896Y-37361042D01*
X170570208Y-37511354D01*
X170742184Y-37636301D01*
X170742188Y-37636303D01*
X170742195Y-37636307D01*
X170754790Y-37642724D01*
X170805588Y-37690696D01*
X170822500Y-37753211D01*
X170822500Y-38709288D01*
X170802815Y-38776327D01*
X170754798Y-38819771D01*
X170742182Y-38826199D01*
X170570213Y-38951140D01*
X170419890Y-39101463D01*
X170294951Y-39273429D01*
X170198444Y-39462835D01*
X170132753Y-39665010D01*
X170110225Y-39807250D01*
X170099500Y-39874963D01*
X170099500Y-41087537D01*
X170132754Y-41297493D01*
X170159968Y-41381250D01*
X170198444Y-41499664D01*
X170294951Y-41689070D01*
X170419890Y-41861036D01*
X170531373Y-41972519D01*
X170564858Y-42033842D01*
X170559874Y-42103534D01*
X170518002Y-42159467D01*
X170452538Y-42183884D01*
X170443692Y-42184200D01*
X169795691Y-42184200D01*
X169664653Y-42210265D01*
X169664645Y-42210267D01*
X169541203Y-42261398D01*
X169541201Y-42261399D01*
X169430109Y-42335629D01*
X169430105Y-42335632D01*
X169335632Y-42430105D01*
X169335629Y-42430109D01*
X169261399Y-42541201D01*
X169261398Y-42541203D01*
X169210267Y-42664645D01*
X169210265Y-42664653D01*
X169184200Y-42795690D01*
X169184200Y-48350936D01*
X169164515Y-48417975D01*
X169111711Y-48463730D01*
X169086165Y-48472187D01*
X169084708Y-48472498D01*
X168918168Y-48527685D01*
X168918163Y-48527687D01*
X168768842Y-48619789D01*
X168644789Y-48743842D01*
X168552687Y-48893163D01*
X168552685Y-48893168D01*
X168542433Y-48924106D01*
X168497501Y-49059703D01*
X168497501Y-49059704D01*
X168497500Y-49059704D01*
X168487000Y-49162483D01*
X168487000Y-50012501D01*
X168487001Y-50012519D01*
X168497500Y-50115296D01*
X168497501Y-50115299D01*
X168552685Y-50281831D01*
X168552687Y-50281836D01*
X168561237Y-50295697D01*
X168644788Y-50431156D01*
X168768844Y-50555212D01*
X168918166Y-50647314D01*
X169084703Y-50702499D01*
X169187491Y-50713000D01*
X170537508Y-50712999D01*
X170640297Y-50702499D01*
X170806834Y-50647314D01*
X170956156Y-50555212D01*
X171080212Y-50431156D01*
X171172314Y-50281834D01*
X171227499Y-50115297D01*
X171238000Y-50012509D01*
X171237999Y-49162492D01*
X171230780Y-49091827D01*
X171227499Y-49059703D01*
X171227498Y-49059700D01*
X171192002Y-48952581D01*
X171172314Y-48893166D01*
X171080212Y-48743844D01*
X170956156Y-48619788D01*
X170806834Y-48527686D01*
X170640297Y-48472501D01*
X170640295Y-48472500D01*
X170640290Y-48472499D01*
X170638824Y-48472185D01*
X170638008Y-48471743D01*
X170633871Y-48470372D01*
X170634115Y-48469633D01*
X170577395Y-48438893D01*
X170543717Y-48377675D01*
X170540800Y-48350936D01*
X170540800Y-43664800D01*
X170560485Y-43597761D01*
X170613289Y-43552006D01*
X170664800Y-43540800D01*
X173104308Y-43540800D01*
X173104309Y-43540799D01*
X173235353Y-43514734D01*
X173322640Y-43478578D01*
X173358796Y-43463602D01*
X173469891Y-43389370D01*
X173496940Y-43362320D01*
X173507744Y-43355272D01*
X173529340Y-43348768D01*
X173549139Y-43337957D01*
X173562154Y-43338887D01*
X173574646Y-43335126D01*
X173596331Y-43341331D01*
X173618831Y-43342940D01*
X173629275Y-43350758D01*
X173641820Y-43354348D01*
X173656709Y-43371294D01*
X173674765Y-43384810D01*
X173679324Y-43397033D01*
X173687937Y-43406836D01*
X173691300Y-43429139D01*
X173699184Y-43450274D01*
X173699500Y-43459123D01*
X173699500Y-44237402D01*
X173679815Y-44304441D01*
X173663181Y-44325083D01*
X173237582Y-44750681D01*
X173176259Y-44784166D01*
X173149901Y-44787000D01*
X172537498Y-44787000D01*
X172537480Y-44787001D01*
X172434703Y-44797500D01*
X172434700Y-44797501D01*
X172268168Y-44852685D01*
X172268163Y-44852687D01*
X172118842Y-44944789D01*
X171994789Y-45068842D01*
X171902687Y-45218163D01*
X171902685Y-45218168D01*
X171883859Y-45274983D01*
X171847501Y-45384703D01*
X171847501Y-45384704D01*
X171847500Y-45384704D01*
X171837000Y-45487483D01*
X171837000Y-46112501D01*
X171837001Y-46112519D01*
X171847500Y-46215296D01*
X171847501Y-46215299D01*
X171902685Y-46381831D01*
X171902687Y-46381836D01*
X171994789Y-46531157D01*
X172088451Y-46624819D01*
X172121936Y-46686142D01*
X172116952Y-46755834D01*
X172088451Y-46800181D01*
X171994789Y-46893842D01*
X171902687Y-47043163D01*
X171902686Y-47043166D01*
X171847501Y-47209703D01*
X171847501Y-47209704D01*
X171847500Y-47209704D01*
X171837000Y-47312483D01*
X171837000Y-47937501D01*
X171837001Y-47937519D01*
X171847500Y-48040296D01*
X171847501Y-48040299D01*
X171881115Y-48141737D01*
X171902686Y-48206834D01*
X171994788Y-48356156D01*
X172118844Y-48480212D01*
X172268166Y-48572314D01*
X172325005Y-48591148D01*
X172382448Y-48630918D01*
X172409272Y-48695434D01*
X172410000Y-48708853D01*
X172410000Y-49274307D01*
X172434112Y-49395528D01*
X172434113Y-49395532D01*
X172434114Y-49395535D01*
X172455898Y-49448124D01*
X172481413Y-49509725D01*
X172481420Y-49509738D01*
X172542491Y-49601137D01*
X172550090Y-49612509D01*
X172550094Y-49612514D01*
X177741350Y-54803769D01*
X177774835Y-54865092D01*
X177769851Y-54934784D01*
X177727979Y-54990717D01*
X177662515Y-55015134D01*
X177653669Y-55015450D01*
X173501074Y-55015450D01*
X173434035Y-54995765D01*
X173413393Y-54979131D01*
X171274318Y-52840056D01*
X171240833Y-52778733D01*
X171237999Y-52752375D01*
X171237999Y-51962498D01*
X171237998Y-51962481D01*
X171227499Y-51859703D01*
X171227498Y-51859700D01*
X171189045Y-51743657D01*
X171172314Y-51693166D01*
X171080212Y-51543844D01*
X170956156Y-51419788D01*
X170863388Y-51362569D01*
X170806836Y-51327687D01*
X170806831Y-51327685D01*
X170754333Y-51310289D01*
X170640297Y-51272501D01*
X170640295Y-51272500D01*
X170537510Y-51262000D01*
X169187498Y-51262000D01*
X169187481Y-51262001D01*
X169084703Y-51272500D01*
X169084700Y-51272501D01*
X168918168Y-51327685D01*
X168918163Y-51327687D01*
X168768842Y-51419789D01*
X168644789Y-51543842D01*
X168552687Y-51693163D01*
X168552685Y-51693168D01*
X168537053Y-51740343D01*
X168497501Y-51859703D01*
X168497501Y-51859704D01*
X168497500Y-51859704D01*
X168487000Y-51962483D01*
X168487000Y-52812501D01*
X168487001Y-52812519D01*
X168497500Y-52915296D01*
X168497501Y-52915299D01*
X168542082Y-53049833D01*
X168552686Y-53081834D01*
X168644788Y-53231156D01*
X168768844Y-53355212D01*
X168918166Y-53447314D01*
X169084703Y-53502499D01*
X169187491Y-53513000D01*
X169977376Y-53512999D01*
X170044415Y-53532683D01*
X170065057Y-53549318D01*
X172736355Y-56220618D01*
X172736356Y-56220619D01*
X172736359Y-56220621D01*
X172802955Y-56265119D01*
X172847454Y-56294852D01*
X172885751Y-56310715D01*
X172970898Y-56345984D01*
X173071950Y-56366084D01*
X173101943Y-56372050D01*
X173101944Y-56372050D01*
X173235557Y-56372050D01*
X184935200Y-56372050D01*
X185002239Y-56391735D01*
X185047994Y-56444539D01*
X185059200Y-56496050D01*
X185059200Y-58380945D01*
X185039515Y-58447984D01*
X184986711Y-58493739D01*
X184974210Y-58498648D01*
X184943166Y-58508936D01*
X184943163Y-58508937D01*
X184793842Y-58601039D01*
X184669789Y-58725092D01*
X184577687Y-58874413D01*
X184577686Y-58874416D01*
X184522501Y-59040953D01*
X184522501Y-59040954D01*
X184522500Y-59040954D01*
X184512000Y-59143733D01*
X184512000Y-59918751D01*
X184512001Y-59918769D01*
X184522500Y-60021546D01*
X184522501Y-60021549D01*
X184577685Y-60188081D01*
X184577687Y-60188086D01*
X184590926Y-60209550D01*
X184669788Y-60337406D01*
X184793844Y-60461462D01*
X184797128Y-60463487D01*
X184797153Y-60463503D01*
X184798945Y-60465496D01*
X184799511Y-60465943D01*
X184799434Y-60466039D01*
X184843879Y-60515449D01*
X184855103Y-60584411D01*
X184827261Y-60648494D01*
X184797165Y-60674576D01*
X184794160Y-60676429D01*
X184794155Y-60676433D01*
X184670184Y-60800404D01*
X184578143Y-60949625D01*
X184578141Y-60949630D01*
X184522994Y-61116052D01*
X184522993Y-61116059D01*
X184512500Y-61218763D01*
X184512500Y-61356250D01*
X186962499Y-61356250D01*
X186962499Y-61218778D01*
X186962498Y-61218763D01*
X186952005Y-61116052D01*
X186896858Y-60949630D01*
X186896856Y-60949625D01*
X186804815Y-60800404D01*
X186680844Y-60676433D01*
X186680841Y-60676431D01*
X186677839Y-60674579D01*
X186676213Y-60672771D01*
X186675177Y-60671952D01*
X186675317Y-60671774D01*
X186631117Y-60622630D01*
X186619897Y-60553667D01*
X186647743Y-60489586D01*
X186677844Y-60463504D01*
X186681156Y-60461462D01*
X186805212Y-60337406D01*
X186847742Y-60268452D01*
X186899690Y-60221729D01*
X186953281Y-60209550D01*
X188373058Y-60209550D01*
X188373059Y-60209549D01*
X188504103Y-60183484D01*
X188591390Y-60147328D01*
X188627546Y-60132352D01*
X188738641Y-60058120D01*
X188833120Y-59963641D01*
X189367693Y-59429066D01*
X189429014Y-59395583D01*
X189465099Y-59393131D01*
X189479315Y-59394250D01*
X189883184Y-59394249D01*
X189919348Y-59391404D01*
X190047551Y-59354157D01*
X190116740Y-59354157D01*
X190231249Y-59387424D01*
X190231250Y-59387424D01*
X190231250Y-59297381D01*
X190237679Y-59275486D01*
X190239563Y-59252743D01*
X190248300Y-59239313D01*
X190250935Y-59230342D01*
X190256825Y-59221958D01*
X190261789Y-59215479D01*
X190326876Y-59150393D01*
X190378307Y-59063426D01*
X190382825Y-59057531D01*
X190405268Y-59041121D01*
X190425586Y-59022150D01*
X190433078Y-59020787D01*
X190439226Y-59016292D01*
X190466979Y-59014620D01*
X190494328Y-59009646D01*
X190501367Y-59012549D01*
X190508970Y-59012092D01*
X190533220Y-59025690D01*
X190558917Y-59036291D01*
X190565336Y-59043699D01*
X190569912Y-59046265D01*
X190573644Y-59053286D01*
X190587980Y-59069830D01*
X190635624Y-59150393D01*
X190694932Y-59209701D01*
X190728416Y-59271022D01*
X190731250Y-59297381D01*
X190731250Y-59387424D01*
X190845758Y-59354157D01*
X190914948Y-59354157D01*
X191043147Y-59391403D01*
X191043150Y-59391403D01*
X191043152Y-59391404D01*
X191079315Y-59394250D01*
X191483184Y-59394249D01*
X191519348Y-59391404D01*
X191646656Y-59354417D01*
X191715844Y-59354417D01*
X191843152Y-59391404D01*
X191879315Y-59394250D01*
X192283184Y-59394249D01*
X192319348Y-59391404D01*
X192446656Y-59354417D01*
X192515844Y-59354417D01*
X192643152Y-59391404D01*
X192679315Y-59394250D01*
X193083184Y-59394249D01*
X193119348Y-59391404D01*
X193246656Y-59354417D01*
X193315844Y-59354417D01*
X193443152Y-59391404D01*
X193479315Y-59394250D01*
X193883184Y-59394249D01*
X193919348Y-59391404D01*
X194046656Y-59354417D01*
X194115844Y-59354417D01*
X194243152Y-59391404D01*
X194279315Y-59394250D01*
X194683184Y-59394249D01*
X194719348Y-59391404D01*
X194846656Y-59354417D01*
X194915844Y-59354417D01*
X195043152Y-59391404D01*
X195079315Y-59394250D01*
X195483184Y-59394249D01*
X195519348Y-59391404D01*
X195646656Y-59354417D01*
X195715844Y-59354417D01*
X195843152Y-59391404D01*
X195879315Y-59394250D01*
X196283184Y-59394249D01*
X196319348Y-59391404D01*
X196447551Y-59354157D01*
X196516740Y-59354157D01*
X196631249Y-59387424D01*
X196631250Y-59387424D01*
X196631250Y-59297381D01*
X196637723Y-59275333D01*
X196639682Y-59252435D01*
X196648346Y-59239156D01*
X196650935Y-59230342D01*
X196657027Y-59221696D01*
X196661909Y-59215359D01*
X196726876Y-59150393D01*
X196776089Y-59067176D01*
X196780727Y-59061158D01*
X196803083Y-59044902D01*
X196823286Y-59026039D01*
X196830941Y-59024646D01*
X196837237Y-59020069D01*
X196864837Y-59018480D01*
X196892027Y-59013535D01*
X196899219Y-59016502D01*
X196906992Y-59016055D01*
X196931071Y-59029641D01*
X196956617Y-59040180D01*
X196961063Y-59046564D01*
X196967843Y-59050390D01*
X196980751Y-59074832D01*
X196996548Y-59097514D01*
X196998249Y-59107966D01*
X197000471Y-59112173D01*
X196999941Y-59118362D01*
X197002950Y-59136843D01*
X197002950Y-60074878D01*
X196993511Y-60122330D01*
X196991518Y-60127140D01*
X196991514Y-60127154D01*
X196965450Y-60258188D01*
X196965450Y-60391811D01*
X196991514Y-60522845D01*
X196991516Y-60522853D01*
X197032707Y-60622297D01*
X197040176Y-60691767D01*
X197008901Y-60754246D01*
X196948812Y-60789898D01*
X196918147Y-60793750D01*
X196775029Y-60793750D01*
X196775012Y-60793751D01*
X196672302Y-60804244D01*
X196505880Y-60859391D01*
X196505875Y-60859393D01*
X196356654Y-60951434D01*
X196232684Y-61075404D01*
X196140643Y-61224625D01*
X196140641Y-61224630D01*
X196085494Y-61391052D01*
X196085493Y-61391059D01*
X196075000Y-61493763D01*
X196075000Y-61768750D01*
X197038500Y-61768750D01*
X197105539Y-61788435D01*
X197151294Y-61841239D01*
X197162500Y-61892750D01*
X197162500Y-62018750D01*
X197288500Y-62018750D01*
X197355539Y-62038435D01*
X197401294Y-62091239D01*
X197412500Y-62142750D01*
X197412500Y-63243749D01*
X197549972Y-63243749D01*
X197549986Y-63243748D01*
X197652697Y-63233255D01*
X197819119Y-63178108D01*
X197819124Y-63178106D01*
X197968345Y-63086065D01*
X198092318Y-62962092D01*
X198094165Y-62959098D01*
X198095969Y-62957474D01*
X198096798Y-62956427D01*
X198096976Y-62956568D01*
X198146110Y-62912371D01*
X198215073Y-62901146D01*
X198279156Y-62928986D01*
X198305243Y-62959091D01*
X198307288Y-62962406D01*
X198431344Y-63086462D01*
X198580666Y-63178564D01*
X198747203Y-63233749D01*
X198849991Y-63244250D01*
X199625008Y-63244249D01*
X199625016Y-63244248D01*
X199625019Y-63244248D01*
X199681302Y-63238498D01*
X199727797Y-63233749D01*
X199894334Y-63178564D01*
X200043656Y-63086462D01*
X200167712Y-62962406D01*
X200259814Y-62813084D01*
X200314999Y-62646547D01*
X200325500Y-62543759D01*
X200325499Y-61493742D01*
X200314999Y-61390953D01*
X200259814Y-61224416D01*
X200167712Y-61075094D01*
X200043656Y-60951038D01*
X199894334Y-60858936D01*
X199727797Y-60803751D01*
X199727795Y-60803750D01*
X199625016Y-60793250D01*
X199625009Y-60793250D01*
X199122623Y-60793250D01*
X199055584Y-60773565D01*
X199034942Y-60756931D01*
X198395869Y-60117858D01*
X198362384Y-60056535D01*
X198359550Y-60030177D01*
X198359550Y-59287486D01*
X202000001Y-59287486D01*
X202010494Y-59390197D01*
X202065641Y-59556619D01*
X202065643Y-59556624D01*
X202157684Y-59705845D01*
X202281654Y-59829815D01*
X202430875Y-59921856D01*
X202430880Y-59921858D01*
X202597302Y-59977005D01*
X202597309Y-59977006D01*
X202700019Y-59987499D01*
X202949999Y-59987499D01*
X203450000Y-59987499D01*
X203699972Y-59987499D01*
X203699986Y-59987498D01*
X203802697Y-59977005D01*
X203969119Y-59921858D01*
X203969124Y-59921856D01*
X204118345Y-59829815D01*
X204242315Y-59705845D01*
X204334356Y-59556624D01*
X204334358Y-59556619D01*
X204389505Y-59390197D01*
X204389506Y-59390190D01*
X204399999Y-59287486D01*
X204400000Y-59287473D01*
X204400000Y-59225000D01*
X203450000Y-59225000D01*
X203450000Y-59987499D01*
X202949999Y-59987499D01*
X202950000Y-59987498D01*
X202950000Y-59225000D01*
X202000001Y-59225000D01*
X202000001Y-59287486D01*
X198359550Y-59287486D01*
X198359550Y-59129065D01*
X198376818Y-59065944D01*
X198408931Y-59011644D01*
X198453904Y-58856848D01*
X198456750Y-58820685D01*
X198456749Y-57491816D01*
X198453904Y-57455652D01*
X198439335Y-57405505D01*
X198439534Y-57335637D01*
X198477476Y-57276967D01*
X198541114Y-57248123D01*
X198593005Y-57251834D01*
X198643152Y-57266404D01*
X198679315Y-57269250D01*
X199180468Y-57269249D01*
X199247507Y-57288933D01*
X199268149Y-57305568D01*
X199512589Y-57550008D01*
X199599992Y-57637411D01*
X199599993Y-57637412D01*
X199702760Y-57706079D01*
X199702773Y-57706086D01*
X199745681Y-57723859D01*
X199745682Y-57723859D01*
X199816966Y-57753386D01*
X199938192Y-57777499D01*
X199938196Y-57777500D01*
X199938197Y-57777500D01*
X200061804Y-57777500D01*
X202024146Y-57777500D01*
X202091185Y-57797185D01*
X202117956Y-57820409D01*
X202124460Y-57827933D01*
X202157288Y-57881156D01*
X202254493Y-57978361D01*
X202257433Y-57981762D01*
X202270120Y-58009632D01*
X202284789Y-58036495D01*
X202284457Y-58041125D01*
X202286382Y-58045352D01*
X202281988Y-58075651D01*
X202279805Y-58106187D01*
X202276907Y-58110695D01*
X202276356Y-58114499D01*
X202269079Y-58122876D01*
X202251305Y-58150534D01*
X202157682Y-58244157D01*
X202065643Y-58393375D01*
X202065641Y-58393380D01*
X202010494Y-58559802D01*
X202010493Y-58559809D01*
X202000000Y-58662513D01*
X202000000Y-58725000D01*
X204399999Y-58725000D01*
X204399999Y-58662528D01*
X204399998Y-58662513D01*
X204389505Y-58559802D01*
X204334358Y-58393380D01*
X204334356Y-58393375D01*
X204242315Y-58244154D01*
X204148695Y-58150534D01*
X204115210Y-58089211D01*
X204120194Y-58019519D01*
X204148691Y-57975176D01*
X204242712Y-57881156D01*
X204334814Y-57731834D01*
X204389999Y-57565297D01*
X204400500Y-57462509D01*
X204400499Y-56837492D01*
X204400130Y-56833883D01*
X204389999Y-56734703D01*
X204389998Y-56734700D01*
X204367827Y-56667792D01*
X204334814Y-56568166D01*
X204242712Y-56418844D01*
X204118656Y-56294788D01*
X204025888Y-56237569D01*
X203969336Y-56202687D01*
X203969331Y-56202685D01*
X203967862Y-56202198D01*
X203802797Y-56147501D01*
X203802795Y-56147500D01*
X203700010Y-56137000D01*
X202699998Y-56137000D01*
X202699980Y-56137001D01*
X202597203Y-56147500D01*
X202597200Y-56147501D01*
X202430668Y-56202685D01*
X202430663Y-56202687D01*
X202281342Y-56294789D01*
X202157289Y-56418842D01*
X202157287Y-56418845D01*
X202129684Y-56463597D01*
X202077736Y-56510322D01*
X202024146Y-56522500D01*
X200705749Y-56522500D01*
X200638710Y-56502815D01*
X200592955Y-56450011D01*
X200581749Y-56398500D01*
X200581749Y-56291826D01*
X200581748Y-56291802D01*
X200578904Y-56255652D01*
X200568726Y-56220619D01*
X200541917Y-56128343D01*
X200541917Y-56059156D01*
X200578904Y-55931848D01*
X200581750Y-55895685D01*
X200581749Y-55491816D01*
X200578904Y-55455652D01*
X200541917Y-55328343D01*
X200541917Y-55259156D01*
X200578904Y-55131848D01*
X200581750Y-55095685D01*
X200581749Y-54845248D01*
X200601433Y-54778211D01*
X200654237Y-54732456D01*
X200705749Y-54721250D01*
X203608350Y-54721250D01*
X203675389Y-54740935D01*
X203696031Y-54757569D01*
X205544931Y-56606469D01*
X205578416Y-56667792D01*
X205581250Y-56694150D01*
X205581250Y-70813000D01*
X205561565Y-70880039D01*
X205508761Y-70925794D01*
X205457250Y-70937000D01*
X168284756Y-70937000D01*
X168265359Y-70935473D01*
X168248467Y-70932797D01*
X168203767Y-70925718D01*
X168166872Y-70913731D01*
X168120107Y-70889904D01*
X168088721Y-70867102D01*
X168051607Y-70829990D01*
X168028804Y-70798606D01*
X168004976Y-70751846D01*
X167992986Y-70714950D01*
X167983278Y-70653675D01*
X167981750Y-70634271D01*
X167981750Y-67272844D01*
X170200000Y-67272844D01*
X170206401Y-67332372D01*
X170206403Y-67332379D01*
X170256645Y-67467086D01*
X170256649Y-67467093D01*
X170342809Y-67582187D01*
X170342812Y-67582190D01*
X170457906Y-67668350D01*
X170457913Y-67668354D01*
X170592620Y-67718596D01*
X170592627Y-67718598D01*
X170652155Y-67724999D01*
X170652172Y-67725000D01*
X171350000Y-67725000D01*
X171850000Y-67725000D01*
X172547828Y-67725000D01*
X172547844Y-67724999D01*
X172607372Y-67718598D01*
X172607379Y-67718596D01*
X172742086Y-67668354D01*
X172742093Y-67668350D01*
X172857187Y-67582190D01*
X172857190Y-67582187D01*
X172943350Y-67467093D01*
X172943354Y-67467086D01*
X172993596Y-67332379D01*
X172993598Y-67332372D01*
X172999999Y-67272844D01*
X173000000Y-67272827D01*
X173000000Y-66925000D01*
X171850000Y-66925000D01*
X171850000Y-67725000D01*
X171350000Y-67725000D01*
X171350000Y-66925000D01*
X170200000Y-66925000D01*
X170200000Y-67272844D01*
X167981750Y-67272844D01*
X167981750Y-66077155D01*
X170200000Y-66077155D01*
X170200000Y-66425000D01*
X171350000Y-66425000D01*
X171850000Y-66425000D01*
X173000000Y-66425000D01*
X173000000Y-66077164D01*
X172999997Y-66077135D01*
X176399500Y-66077135D01*
X176399500Y-67272870D01*
X176399501Y-67272876D01*
X176405908Y-67332483D01*
X176456202Y-67467328D01*
X176456206Y-67467335D01*
X176542452Y-67582544D01*
X176542455Y-67582547D01*
X176657664Y-67668793D01*
X176657671Y-67668797D01*
X176792517Y-67719091D01*
X176792516Y-67719091D01*
X176799444Y-67719835D01*
X176852127Y-67725500D01*
X178747872Y-67725499D01*
X178807483Y-67719091D01*
X178942331Y-67668796D01*
X179057546Y-67582546D01*
X179143796Y-67467331D01*
X179194091Y-67332483D01*
X179200500Y-67272873D01*
X179200499Y-66077128D01*
X179194091Y-66017517D01*
X179143884Y-65882906D01*
X179143797Y-65882671D01*
X179143793Y-65882664D01*
X179057547Y-65767455D01*
X179057544Y-65767452D01*
X178942335Y-65681206D01*
X178942328Y-65681202D01*
X178807482Y-65630908D01*
X178807483Y-65630908D01*
X178747883Y-65624501D01*
X178747881Y-65624500D01*
X178747873Y-65624500D01*
X178747864Y-65624500D01*
X176852129Y-65624500D01*
X176852123Y-65624501D01*
X176792516Y-65630908D01*
X176657671Y-65681202D01*
X176657664Y-65681206D01*
X176542455Y-65767452D01*
X176542452Y-65767455D01*
X176456206Y-65882664D01*
X176456202Y-65882671D01*
X176405908Y-66017517D01*
X176399501Y-66077116D01*
X176399501Y-66077123D01*
X176399500Y-66077135D01*
X172999997Y-66077135D01*
X172993598Y-66017627D01*
X172993596Y-66017620D01*
X172943354Y-65882913D01*
X172943350Y-65882906D01*
X172857190Y-65767812D01*
X172857187Y-65767809D01*
X172742093Y-65681649D01*
X172742086Y-65681645D01*
X172607379Y-65631403D01*
X172607372Y-65631401D01*
X172547844Y-65625000D01*
X171850000Y-65625000D01*
X171850000Y-66425000D01*
X171350000Y-66425000D01*
X171350000Y-65625000D01*
X170652155Y-65625000D01*
X170592627Y-65631401D01*
X170592620Y-65631403D01*
X170457913Y-65681645D01*
X170457906Y-65681649D01*
X170342812Y-65767809D01*
X170342809Y-65767812D01*
X170256649Y-65882906D01*
X170256645Y-65882913D01*
X170206403Y-66017620D01*
X170206401Y-66017627D01*
X170200000Y-66077155D01*
X167981750Y-66077155D01*
X167981750Y-62377135D01*
X170199500Y-62377135D01*
X170199500Y-63572870D01*
X170199501Y-63572876D01*
X170205908Y-63632483D01*
X170256202Y-63767328D01*
X170256206Y-63767335D01*
X170342452Y-63882544D01*
X170342455Y-63882547D01*
X170457664Y-63968793D01*
X170457671Y-63968797D01*
X170592517Y-64019091D01*
X170592516Y-64019091D01*
X170599444Y-64019835D01*
X170652127Y-64025500D01*
X172547872Y-64025499D01*
X172607483Y-64019091D01*
X172742331Y-63968796D01*
X172857546Y-63882546D01*
X172943796Y-63767331D01*
X172994091Y-63632483D01*
X173000500Y-63572873D01*
X173000499Y-62377135D01*
X176399500Y-62377135D01*
X176399500Y-63572870D01*
X176399501Y-63572876D01*
X176405908Y-63632483D01*
X176456202Y-63767328D01*
X176456206Y-63767335D01*
X176542452Y-63882544D01*
X176542455Y-63882547D01*
X176657664Y-63968793D01*
X176657671Y-63968797D01*
X176792517Y-64019091D01*
X176792516Y-64019091D01*
X176799444Y-64019835D01*
X176852127Y-64025500D01*
X178747872Y-64025499D01*
X178807483Y-64019091D01*
X178942331Y-63968796D01*
X179057546Y-63882546D01*
X179143796Y-63767331D01*
X179175187Y-63683168D01*
X179217058Y-63627234D01*
X179282522Y-63602816D01*
X179291369Y-63602500D01*
X179974304Y-63602500D01*
X179974305Y-63602499D01*
X180095535Y-63578386D01*
X180176284Y-63544937D01*
X180209733Y-63531083D01*
X180226495Y-63519882D01*
X180233784Y-63516289D01*
X180243337Y-63514624D01*
X180264429Y-63505887D01*
X180414747Y-63475987D01*
X180560429Y-63415644D01*
X180691539Y-63328039D01*
X180803039Y-63216539D01*
X180890644Y-63085429D01*
X180950987Y-62939747D01*
X180981750Y-62785092D01*
X180981750Y-62627408D01*
X180981750Y-62627405D01*
X180981749Y-62627403D01*
X180965106Y-62543736D01*
X180950987Y-62472753D01*
X180911376Y-62377122D01*
X180890647Y-62327077D01*
X180890640Y-62327064D01*
X180803039Y-62195961D01*
X180803036Y-62195957D01*
X180691542Y-62084463D01*
X180691538Y-62084460D01*
X180560435Y-61996859D01*
X180560422Y-61996852D01*
X180552899Y-61993736D01*
X184512501Y-61993736D01*
X184522994Y-62096447D01*
X184578141Y-62262869D01*
X184578143Y-62262874D01*
X184670184Y-62412095D01*
X184794154Y-62536065D01*
X184943375Y-62628106D01*
X184943380Y-62628108D01*
X185109802Y-62683255D01*
X185109809Y-62683256D01*
X185212519Y-62693749D01*
X185487499Y-62693749D01*
X185987500Y-62693749D01*
X186262472Y-62693749D01*
X186262486Y-62693748D01*
X186365197Y-62683255D01*
X186531619Y-62628108D01*
X186531624Y-62628106D01*
X186668408Y-62543736D01*
X196075001Y-62543736D01*
X196085494Y-62646447D01*
X196140641Y-62812869D01*
X196140643Y-62812874D01*
X196232684Y-62962095D01*
X196356654Y-63086065D01*
X196505875Y-63178106D01*
X196505880Y-63178108D01*
X196672302Y-63233255D01*
X196672309Y-63233256D01*
X196775019Y-63243749D01*
X196912499Y-63243749D01*
X196912500Y-63243748D01*
X196912500Y-62268750D01*
X196075001Y-62268750D01*
X196075001Y-62543736D01*
X186668408Y-62543736D01*
X186680845Y-62536065D01*
X186804815Y-62412095D01*
X186896856Y-62262874D01*
X186896858Y-62262869D01*
X186924854Y-62178384D01*
X186952005Y-62096447D01*
X186952006Y-62096440D01*
X186962499Y-61993736D01*
X186962500Y-61993723D01*
X186962500Y-61856250D01*
X185987500Y-61856250D01*
X185987500Y-62693749D01*
X185487499Y-62693749D01*
X185487500Y-62693748D01*
X185487500Y-61856250D01*
X184512501Y-61856250D01*
X184512501Y-61993736D01*
X180552899Y-61993736D01*
X180414751Y-61936514D01*
X180414741Y-61936511D01*
X180364436Y-61926505D01*
X180364435Y-61926504D01*
X180260095Y-61905750D01*
X180260092Y-61905750D01*
X180102408Y-61905750D01*
X180102405Y-61905750D01*
X179947760Y-61936511D01*
X179947748Y-61936514D01*
X179802077Y-61996852D01*
X179802064Y-61996859D01*
X179670961Y-62084460D01*
X179670957Y-62084463D01*
X179559463Y-62195957D01*
X179559460Y-62195961D01*
X179495028Y-62292391D01*
X179488936Y-62297481D01*
X179485639Y-62304703D01*
X179462511Y-62319566D01*
X179441416Y-62337196D01*
X179432041Y-62339147D01*
X179426861Y-62342477D01*
X179391926Y-62347500D01*
X179291369Y-62347500D01*
X179224330Y-62327815D01*
X179178575Y-62275011D01*
X179175187Y-62266832D01*
X179143798Y-62182673D01*
X179143793Y-62182664D01*
X179057547Y-62067455D01*
X179057544Y-62067452D01*
X178942335Y-61981206D01*
X178942328Y-61981202D01*
X178807482Y-61930908D01*
X178807483Y-61930908D01*
X178747883Y-61924501D01*
X178747881Y-61924500D01*
X178747873Y-61924500D01*
X178747864Y-61924500D01*
X176852129Y-61924500D01*
X176852123Y-61924501D01*
X176792516Y-61930908D01*
X176657671Y-61981202D01*
X176657664Y-61981206D01*
X176542455Y-62067452D01*
X176542452Y-62067455D01*
X176456206Y-62182664D01*
X176456202Y-62182671D01*
X176405908Y-62317517D01*
X176399501Y-62377116D01*
X176399500Y-62377135D01*
X173000499Y-62377135D01*
X173000499Y-62377128D01*
X172994091Y-62317517D01*
X172978237Y-62275011D01*
X172943797Y-62182671D01*
X172943793Y-62182664D01*
X172857547Y-62067455D01*
X172857544Y-62067452D01*
X172742335Y-61981206D01*
X172742328Y-61981202D01*
X172607482Y-61930908D01*
X172607483Y-61930908D01*
X172547883Y-61924501D01*
X172547881Y-61924500D01*
X172547873Y-61924500D01*
X172547864Y-61924500D01*
X170652129Y-61924500D01*
X170652123Y-61924501D01*
X170592516Y-61930908D01*
X170457671Y-61981202D01*
X170457664Y-61981206D01*
X170342455Y-62067452D01*
X170342452Y-62067455D01*
X170256206Y-62182664D01*
X170256202Y-62182671D01*
X170205908Y-62317517D01*
X170199501Y-62377116D01*
X170199500Y-62377135D01*
X167981750Y-62377135D01*
X167981750Y-34930411D01*
X167982222Y-34919604D01*
X167997318Y-34747041D01*
X168001069Y-34725766D01*
X168044498Y-34563687D01*
X168051886Y-34543387D01*
X168122798Y-34391313D01*
X168133600Y-34372602D01*
X168229842Y-34235152D01*
X168243726Y-34218603D01*
X168362380Y-34099946D01*
X168378923Y-34086065D01*
X168516376Y-33989815D01*
X168535077Y-33979017D01*
X168687153Y-33908099D01*
X168707454Y-33900709D01*
X168869530Y-33857277D01*
X168890807Y-33853524D01*
X169062242Y-33838519D01*
X169073008Y-33838049D01*
X205457251Y-33838025D01*
X205524289Y-33857710D01*
G37*
%TD.AperFunction*%
%TD*%
M02*
