%TF.GenerationSoftware,KiCad,Pcbnew,9.0.7*%
%TF.CreationDate,2026-03-11T14:03:44-06:00*%
%TF.ProjectId,keyboard-pcb-proj-best,6b657962-6f61-4726-942d-7063622d7072,rev?*%
%TF.SameCoordinates,Original*%
%TF.FileFunction,Soldermask,Bot*%
%TF.FilePolarity,Negative*%
%FSLAX46Y46*%
G04 Gerber Fmt 4.6, Leading zero omitted, Abs format (unit mm)*
G04 Created by KiCad (PCBNEW 9.0.7) date 2026-03-11 14:03:44*
%MOMM*%
%LPD*%
G01*
G04 APERTURE LIST*
G04 Aperture macros list*
%AMRoundRect*
0 Rectangle with rounded corners*
0 $1 Rounding radius*
0 $2 $3 $4 $5 $6 $7 $8 $9 X,Y pos of 4 corners*
0 Add a 4 corners polygon primitive as box body*
4,1,4,$2,$3,$4,$5,$6,$7,$8,$9,$2,$3,0*
0 Add four circle primitives for the rounded corners*
1,1,$1+$1,$2,$3*
1,1,$1+$1,$4,$5*
1,1,$1+$1,$6,$7*
1,1,$1+$1,$8,$9*
0 Add four rect primitives between the rounded corners*
20,1,$1+$1,$2,$3,$4,$5,0*
20,1,$1+$1,$4,$5,$6,$7,0*
20,1,$1+$1,$6,$7,$8,$9,0*
20,1,$1+$1,$8,$9,$2,$3,0*%
%AMHorizOval*
0 Thick line with rounded ends*
0 $1 width*
0 $2 $3 position (X,Y) of the first rounded end (center of the circle)*
0 $4 $5 position (X,Y) of the second rounded end (center of the circle)*
0 Add line between two ends*
20,1,$1,$2,$3,$4,$5,0*
0 Add two circle primitives to create the rounded ends*
1,1,$1,$2,$3*
1,1,$1,$4,$5*%
G04 Aperture macros list end*
%ADD10R,0.500000X2.250000*%
%ADD11O,1.700000X2.700000*%
%ADD12C,1.750000*%
%ADD13C,3.987800*%
%ADD14HorizOval,2.250000X0.655001X0.730000X-0.655001X-0.730000X0*%
%ADD15C,2.250000*%
%ADD16HorizOval,2.250000X0.020000X0.290000X-0.020000X-0.290000X0*%
%ADD17RoundRect,0.250000X0.475000X-0.337500X0.475000X0.337500X-0.475000X0.337500X-0.475000X-0.337500X0*%
%ADD18RoundRect,0.250000X0.450000X-0.262500X0.450000X0.262500X-0.450000X0.262500X-0.450000X-0.262500X0*%
%ADD19RoundRect,0.250000X0.337500X0.475000X-0.337500X0.475000X-0.337500X-0.475000X0.337500X-0.475000X0*%
%ADD20RoundRect,0.250000X0.450000X0.350000X-0.450000X0.350000X-0.450000X-0.350000X0.450000X-0.350000X0*%
%ADD21RoundRect,0.137500X-0.600000X-0.137500X0.600000X-0.137500X0.600000X0.137500X-0.600000X0.137500X0*%
%ADD22RoundRect,0.137500X-0.137500X-0.600000X0.137500X-0.600000X0.137500X0.600000X-0.137500X0.600000X0*%
%ADD23RoundRect,0.250000X-0.475000X0.337500X-0.475000X-0.337500X0.475000X-0.337500X0.475000X0.337500X0*%
%ADD24RoundRect,0.225000X0.375000X-0.225000X0.375000X0.225000X-0.375000X0.225000X-0.375000X-0.225000X0*%
%ADD25RoundRect,0.250000X0.625000X-0.375000X0.625000X0.375000X-0.625000X0.375000X-0.625000X-0.375000X0*%
%ADD26R,1.800000X1.100000*%
G04 APERTURE END LIST*
D10*
%TO.C,USB1*%
X176700000Y-40481250D03*
X175900000Y-40481250D03*
X175100000Y-40481250D03*
X174300000Y-40481250D03*
X173500000Y-40481250D03*
D11*
X178750000Y-35981250D03*
X171450000Y-35981250D03*
X178750000Y-40481250D03*
X171450000Y-40481250D03*
%TD*%
D12*
%TO.C,MX1*%
X210026250Y-42862500D03*
D13*
X215106250Y-42862500D03*
D12*
X220186250Y-42862500D03*
D14*
X211951251Y-39592500D03*
D15*
X212606250Y-38862500D03*
D16*
X217626250Y-38072500D03*
D15*
X217646250Y-37782500D03*
%TD*%
D12*
%TO.C,MX3*%
X210026250Y-61912500D03*
D13*
X215106250Y-61912500D03*
D12*
X220186250Y-61912500D03*
D14*
X211951251Y-58642500D03*
D15*
X212606250Y-57912500D03*
D16*
X217626250Y-57122500D03*
D15*
X217646250Y-56832500D03*
%TD*%
D12*
%TO.C,MX2*%
X229076250Y-42862500D03*
D13*
X234156250Y-42862500D03*
D12*
X239236250Y-42862500D03*
D14*
X231001251Y-39592500D03*
D15*
X231656250Y-38862500D03*
D16*
X236676250Y-38072500D03*
D15*
X236696250Y-37782500D03*
%TD*%
D12*
%TO.C,MX4*%
X229076250Y-61912500D03*
D13*
X234156250Y-61912500D03*
D12*
X239236250Y-61912500D03*
D14*
X231001251Y-58642500D03*
D15*
X231656250Y-57912500D03*
D16*
X236676250Y-57122500D03*
D15*
X236696250Y-56832500D03*
%TD*%
D17*
%TO.C,C2*%
X184950000Y-46143750D03*
X184950000Y-44068750D03*
%TD*%
D18*
%TO.C,R4*%
X181775000Y-45587500D03*
X181775000Y-43762500D03*
%TD*%
D19*
%TO.C,C3*%
X199237500Y-62018750D03*
X197162500Y-62018750D03*
%TD*%
D20*
%TO.C,Y1*%
X195087500Y-41381250D03*
X192887500Y-41381250D03*
X192887500Y-39681250D03*
X195087500Y-39681250D03*
%TD*%
D17*
%TO.C,C4*%
X203200000Y-48418750D03*
X203200000Y-46343750D03*
%TD*%
D18*
%TO.C,R3*%
X173037500Y-47625000D03*
X173037500Y-45800000D03*
%TD*%
D21*
%TO.C,U1*%
X188018750Y-56493750D03*
X188018750Y-55693750D03*
X188018750Y-54893750D03*
X188018750Y-54093750D03*
X188018750Y-53293750D03*
X188018750Y-52493750D03*
X188018750Y-51693750D03*
X188018750Y-50893750D03*
X188018750Y-50093750D03*
X188018750Y-49293750D03*
X188018750Y-48493750D03*
D22*
X189681250Y-46831250D03*
X190481250Y-46831250D03*
X191281250Y-46831250D03*
X192081250Y-46831250D03*
X192881250Y-46831250D03*
X193681250Y-46831250D03*
X194481250Y-46831250D03*
X195281250Y-46831250D03*
X196081250Y-46831250D03*
X196881250Y-46831250D03*
X197681250Y-46831250D03*
D21*
X199343750Y-48493750D03*
X199343750Y-49293750D03*
X199343750Y-50093750D03*
X199343750Y-50893750D03*
X199343750Y-51693750D03*
X199343750Y-52493750D03*
X199343750Y-53293750D03*
X199343750Y-54093750D03*
X199343750Y-54893750D03*
X199343750Y-55693750D03*
X199343750Y-56493750D03*
D22*
X197681250Y-58156250D03*
X196881250Y-58156250D03*
X196081250Y-58156250D03*
X195281250Y-58156250D03*
X194481250Y-58156250D03*
X193681250Y-58156250D03*
X192881250Y-58156250D03*
X192081250Y-58156250D03*
X191281250Y-58156250D03*
X190481250Y-58156250D03*
X189681250Y-58156250D03*
%TD*%
D18*
%TO.C,R2*%
X175987500Y-47625000D03*
X175987500Y-45800000D03*
%TD*%
D23*
%TO.C,C5*%
X185737500Y-59531250D03*
X185737500Y-61606250D03*
%TD*%
%TO.C,C6*%
X198200000Y-39306250D03*
X198200000Y-41381250D03*
%TD*%
D24*
%TO.C,D2*%
X242093750Y-44512500D03*
X242093750Y-41212500D03*
%TD*%
%TO.C,D1*%
X223043750Y-44575000D03*
X223043750Y-41275000D03*
%TD*%
D25*
%TO.C,F1*%
X169862500Y-52387500D03*
X169862500Y-49587500D03*
%TD*%
D24*
%TO.C,D3*%
X223043750Y-63625000D03*
X223043750Y-60325000D03*
%TD*%
D18*
%TO.C,R1*%
X203200000Y-58975000D03*
X203200000Y-57150000D03*
%TD*%
D17*
%TO.C,C7*%
X189712500Y-41381250D03*
X189712500Y-39306250D03*
%TD*%
D19*
%TO.C,C1*%
X184637500Y-50800000D03*
X182562500Y-50800000D03*
%TD*%
D26*
%TO.C,SW1*%
X171600000Y-66675000D03*
X177800000Y-62975000D03*
X171600000Y-62975000D03*
X177800000Y-66675000D03*
%TD*%
D24*
%TO.C,D4*%
X242093750Y-63562500D03*
X242093750Y-60262500D03*
%TD*%
M02*
