%TF.GenerationSoftware,KiCad,Pcbnew,9.0.7*%
%TF.CreationDate,2026-03-10T15:29:50-06:00*%
%TF.ProjectId,keyboard-pcb-proj-best,6b657962-6f61-4726-942d-7063622d7072,rev?*%
%TF.SameCoordinates,Original*%
%TF.FileFunction,Legend,Top*%
%TF.FilePolarity,Positive*%
%FSLAX46Y46*%
G04 Gerber Fmt 4.6, Leading zero omitted, Abs format (unit mm)*
G04 Created by KiCad (PCBNEW 9.0.7) date 2026-03-10 15:29:50*
%MOMM*%
%LPD*%
G01*
G04 APERTURE LIST*
%ADD10C,0.150000*%
G04 APERTURE END LIST*
D10*
X241355655Y-46492319D02*
X241355655Y-45492319D01*
X241355655Y-45492319D02*
X241593750Y-45492319D01*
X241593750Y-45492319D02*
X241736607Y-45539938D01*
X241736607Y-45539938D02*
X241831845Y-45635176D01*
X241831845Y-45635176D02*
X241879464Y-45730414D01*
X241879464Y-45730414D02*
X241927083Y-45920890D01*
X241927083Y-45920890D02*
X241927083Y-46063747D01*
X241927083Y-46063747D02*
X241879464Y-46254223D01*
X241879464Y-46254223D02*
X241831845Y-46349461D01*
X241831845Y-46349461D02*
X241736607Y-46444700D01*
X241736607Y-46444700D02*
X241593750Y-46492319D01*
X241593750Y-46492319D02*
X241355655Y-46492319D01*
X242308036Y-45587557D02*
X242355655Y-45539938D01*
X242355655Y-45539938D02*
X242450893Y-45492319D01*
X242450893Y-45492319D02*
X242688988Y-45492319D01*
X242688988Y-45492319D02*
X242784226Y-45539938D01*
X242784226Y-45539938D02*
X242831845Y-45587557D01*
X242831845Y-45587557D02*
X242879464Y-45682795D01*
X242879464Y-45682795D02*
X242879464Y-45778033D01*
X242879464Y-45778033D02*
X242831845Y-45920890D01*
X242831845Y-45920890D02*
X242260417Y-46492319D01*
X242260417Y-46492319D02*
X242879464Y-46492319D01*
X241355655Y-65542319D02*
X241355655Y-64542319D01*
X241355655Y-64542319D02*
X241593750Y-64542319D01*
X241593750Y-64542319D02*
X241736607Y-64589938D01*
X241736607Y-64589938D02*
X241831845Y-64685176D01*
X241831845Y-64685176D02*
X241879464Y-64780414D01*
X241879464Y-64780414D02*
X241927083Y-64970890D01*
X241927083Y-64970890D02*
X241927083Y-65113747D01*
X241927083Y-65113747D02*
X241879464Y-65304223D01*
X241879464Y-65304223D02*
X241831845Y-65399461D01*
X241831845Y-65399461D02*
X241736607Y-65494700D01*
X241736607Y-65494700D02*
X241593750Y-65542319D01*
X241593750Y-65542319D02*
X241355655Y-65542319D01*
X242784226Y-64875652D02*
X242784226Y-65542319D01*
X242546131Y-64494700D02*
X242308036Y-65208985D01*
X242308036Y-65208985D02*
X242927083Y-65208985D01*
M02*
