%TF.GenerationSoftware,KiCad,Pcbnew,9.0.7*%
%TF.CreationDate,2026-03-10T15:29:50-06:00*%
%TF.ProjectId,keyboard-pcb-proj-best,6b657962-6f61-4726-942d-7063622d7072,rev?*%
%TF.SameCoordinates,Original*%
%TF.FileFunction,Legend,Bot*%
%TF.FilePolarity,Positive*%
%FSLAX46Y46*%
G04 Gerber Fmt 4.6, Leading zero omitted, Abs format (unit mm)*
G04 Created by KiCad (PCBNEW 9.0.7) date 2026-03-10 15:29:50*
%MOMM*%
%LPD*%
G01*
G04 APERTURE LIST*
%ADD10C,0.150000*%
%ADD11C,0.120000*%
G04 APERTURE END LIST*
D10*
X186989580Y-44939583D02*
X187037200Y-44891964D01*
X187037200Y-44891964D02*
X187084819Y-44749107D01*
X187084819Y-44749107D02*
X187084819Y-44653869D01*
X187084819Y-44653869D02*
X187037200Y-44511012D01*
X187037200Y-44511012D02*
X186941961Y-44415774D01*
X186941961Y-44415774D02*
X186846723Y-44368155D01*
X186846723Y-44368155D02*
X186656247Y-44320536D01*
X186656247Y-44320536D02*
X186513390Y-44320536D01*
X186513390Y-44320536D02*
X186322914Y-44368155D01*
X186322914Y-44368155D02*
X186227676Y-44415774D01*
X186227676Y-44415774D02*
X186132438Y-44511012D01*
X186132438Y-44511012D02*
X186084819Y-44653869D01*
X186084819Y-44653869D02*
X186084819Y-44749107D01*
X186084819Y-44749107D02*
X186132438Y-44891964D01*
X186132438Y-44891964D02*
X186180057Y-44939583D01*
X186180057Y-45320536D02*
X186132438Y-45368155D01*
X186132438Y-45368155D02*
X186084819Y-45463393D01*
X186084819Y-45463393D02*
X186084819Y-45701488D01*
X186084819Y-45701488D02*
X186132438Y-45796726D01*
X186132438Y-45796726D02*
X186180057Y-45844345D01*
X186180057Y-45844345D02*
X186275295Y-45891964D01*
X186275295Y-45891964D02*
X186370533Y-45891964D01*
X186370533Y-45891964D02*
X186513390Y-45844345D01*
X186513390Y-45844345D02*
X187084819Y-45272917D01*
X187084819Y-45272917D02*
X187084819Y-45891964D01*
X183879819Y-44508333D02*
X183403628Y-44175000D01*
X183879819Y-43936905D02*
X182879819Y-43936905D01*
X182879819Y-43936905D02*
X182879819Y-44317857D01*
X182879819Y-44317857D02*
X182927438Y-44413095D01*
X182927438Y-44413095D02*
X182975057Y-44460714D01*
X182975057Y-44460714D02*
X183070295Y-44508333D01*
X183070295Y-44508333D02*
X183213152Y-44508333D01*
X183213152Y-44508333D02*
X183308390Y-44460714D01*
X183308390Y-44460714D02*
X183356009Y-44413095D01*
X183356009Y-44413095D02*
X183403628Y-44317857D01*
X183403628Y-44317857D02*
X183403628Y-43936905D01*
X183213152Y-45365476D02*
X183879819Y-45365476D01*
X182832200Y-45127381D02*
X183546485Y-44889286D01*
X183546485Y-44889286D02*
X183546485Y-45508333D01*
X198366666Y-60698330D02*
X198414285Y-60745950D01*
X198414285Y-60745950D02*
X198557142Y-60793569D01*
X198557142Y-60793569D02*
X198652380Y-60793569D01*
X198652380Y-60793569D02*
X198795237Y-60745950D01*
X198795237Y-60745950D02*
X198890475Y-60650711D01*
X198890475Y-60650711D02*
X198938094Y-60555473D01*
X198938094Y-60555473D02*
X198985713Y-60364997D01*
X198985713Y-60364997D02*
X198985713Y-60222140D01*
X198985713Y-60222140D02*
X198938094Y-60031664D01*
X198938094Y-60031664D02*
X198890475Y-59936426D01*
X198890475Y-59936426D02*
X198795237Y-59841188D01*
X198795237Y-59841188D02*
X198652380Y-59793569D01*
X198652380Y-59793569D02*
X198557142Y-59793569D01*
X198557142Y-59793569D02*
X198414285Y-59841188D01*
X198414285Y-59841188D02*
X198366666Y-59888807D01*
X198033332Y-59793569D02*
X197414285Y-59793569D01*
X197414285Y-59793569D02*
X197747618Y-60174521D01*
X197747618Y-60174521D02*
X197604761Y-60174521D01*
X197604761Y-60174521D02*
X197509523Y-60222140D01*
X197509523Y-60222140D02*
X197461904Y-60269759D01*
X197461904Y-60269759D02*
X197414285Y-60364997D01*
X197414285Y-60364997D02*
X197414285Y-60603092D01*
X197414285Y-60603092D02*
X197461904Y-60698330D01*
X197461904Y-60698330D02*
X197509523Y-60745950D01*
X197509523Y-60745950D02*
X197604761Y-60793569D01*
X197604761Y-60793569D02*
X197890475Y-60793569D01*
X197890475Y-60793569D02*
X197985713Y-60745950D01*
X197985713Y-60745950D02*
X198033332Y-60698330D01*
X194463690Y-38059878D02*
X194463690Y-38536069D01*
X194797023Y-37536069D02*
X194463690Y-38059878D01*
X194463690Y-38059878D02*
X194130357Y-37536069D01*
X193273214Y-38536069D02*
X193844642Y-38536069D01*
X193558928Y-38536069D02*
X193558928Y-37536069D01*
X193558928Y-37536069D02*
X193654166Y-37678926D01*
X193654166Y-37678926D02*
X193749404Y-37774164D01*
X193749404Y-37774164D02*
X193844642Y-37821783D01*
X205239580Y-47214583D02*
X205287200Y-47166964D01*
X205287200Y-47166964D02*
X205334819Y-47024107D01*
X205334819Y-47024107D02*
X205334819Y-46928869D01*
X205334819Y-46928869D02*
X205287200Y-46786012D01*
X205287200Y-46786012D02*
X205191961Y-46690774D01*
X205191961Y-46690774D02*
X205096723Y-46643155D01*
X205096723Y-46643155D02*
X204906247Y-46595536D01*
X204906247Y-46595536D02*
X204763390Y-46595536D01*
X204763390Y-46595536D02*
X204572914Y-46643155D01*
X204572914Y-46643155D02*
X204477676Y-46690774D01*
X204477676Y-46690774D02*
X204382438Y-46786012D01*
X204382438Y-46786012D02*
X204334819Y-46928869D01*
X204334819Y-46928869D02*
X204334819Y-47024107D01*
X204334819Y-47024107D02*
X204382438Y-47166964D01*
X204382438Y-47166964D02*
X204430057Y-47214583D01*
X204668152Y-48071726D02*
X205334819Y-48071726D01*
X204287200Y-47833631D02*
X205001485Y-47595536D01*
X205001485Y-47595536D02*
X205001485Y-48214583D01*
X194443154Y-59298569D02*
X194443154Y-60108092D01*
X194443154Y-60108092D02*
X194395535Y-60203330D01*
X194395535Y-60203330D02*
X194347916Y-60250950D01*
X194347916Y-60250950D02*
X194252678Y-60298569D01*
X194252678Y-60298569D02*
X194062202Y-60298569D01*
X194062202Y-60298569D02*
X193966964Y-60250950D01*
X193966964Y-60250950D02*
X193919345Y-60203330D01*
X193919345Y-60203330D02*
X193871726Y-60108092D01*
X193871726Y-60108092D02*
X193871726Y-59298569D01*
X192871726Y-60298569D02*
X193443154Y-60298569D01*
X193157440Y-60298569D02*
X193157440Y-59298569D01*
X193157440Y-59298569D02*
X193252678Y-59441426D01*
X193252678Y-59441426D02*
X193347916Y-59536664D01*
X193347916Y-59536664D02*
X193443154Y-59584283D01*
X178092319Y-46545833D02*
X177616128Y-46212500D01*
X178092319Y-45974405D02*
X177092319Y-45974405D01*
X177092319Y-45974405D02*
X177092319Y-46355357D01*
X177092319Y-46355357D02*
X177139938Y-46450595D01*
X177139938Y-46450595D02*
X177187557Y-46498214D01*
X177187557Y-46498214D02*
X177282795Y-46545833D01*
X177282795Y-46545833D02*
X177425652Y-46545833D01*
X177425652Y-46545833D02*
X177520890Y-46498214D01*
X177520890Y-46498214D02*
X177568509Y-46450595D01*
X177568509Y-46450595D02*
X177616128Y-46355357D01*
X177616128Y-46355357D02*
X177616128Y-45974405D01*
X177187557Y-46926786D02*
X177139938Y-46974405D01*
X177139938Y-46974405D02*
X177092319Y-47069643D01*
X177092319Y-47069643D02*
X177092319Y-47307738D01*
X177092319Y-47307738D02*
X177139938Y-47402976D01*
X177139938Y-47402976D02*
X177187557Y-47450595D01*
X177187557Y-47450595D02*
X177282795Y-47498214D01*
X177282795Y-47498214D02*
X177378033Y-47498214D01*
X177378033Y-47498214D02*
X177520890Y-47450595D01*
X177520890Y-47450595D02*
X178092319Y-46879167D01*
X178092319Y-46879167D02*
X178092319Y-47498214D01*
X176838094Y-36674319D02*
X176838094Y-37483842D01*
X176838094Y-37483842D02*
X176790475Y-37579080D01*
X176790475Y-37579080D02*
X176742856Y-37626700D01*
X176742856Y-37626700D02*
X176647618Y-37674319D01*
X176647618Y-37674319D02*
X176457142Y-37674319D01*
X176457142Y-37674319D02*
X176361904Y-37626700D01*
X176361904Y-37626700D02*
X176314285Y-37579080D01*
X176314285Y-37579080D02*
X176266666Y-37483842D01*
X176266666Y-37483842D02*
X176266666Y-36674319D01*
X175838094Y-37626700D02*
X175695237Y-37674319D01*
X175695237Y-37674319D02*
X175457142Y-37674319D01*
X175457142Y-37674319D02*
X175361904Y-37626700D01*
X175361904Y-37626700D02*
X175314285Y-37579080D01*
X175314285Y-37579080D02*
X175266666Y-37483842D01*
X175266666Y-37483842D02*
X175266666Y-37388604D01*
X175266666Y-37388604D02*
X175314285Y-37293366D01*
X175314285Y-37293366D02*
X175361904Y-37245747D01*
X175361904Y-37245747D02*
X175457142Y-37198128D01*
X175457142Y-37198128D02*
X175647618Y-37150509D01*
X175647618Y-37150509D02*
X175742856Y-37102890D01*
X175742856Y-37102890D02*
X175790475Y-37055271D01*
X175790475Y-37055271D02*
X175838094Y-36960033D01*
X175838094Y-36960033D02*
X175838094Y-36864795D01*
X175838094Y-36864795D02*
X175790475Y-36769557D01*
X175790475Y-36769557D02*
X175742856Y-36721938D01*
X175742856Y-36721938D02*
X175647618Y-36674319D01*
X175647618Y-36674319D02*
X175409523Y-36674319D01*
X175409523Y-36674319D02*
X175266666Y-36721938D01*
X174504761Y-37150509D02*
X174361904Y-37198128D01*
X174361904Y-37198128D02*
X174314285Y-37245747D01*
X174314285Y-37245747D02*
X174266666Y-37340985D01*
X174266666Y-37340985D02*
X174266666Y-37483842D01*
X174266666Y-37483842D02*
X174314285Y-37579080D01*
X174314285Y-37579080D02*
X174361904Y-37626700D01*
X174361904Y-37626700D02*
X174457142Y-37674319D01*
X174457142Y-37674319D02*
X174838094Y-37674319D01*
X174838094Y-37674319D02*
X174838094Y-36674319D01*
X174838094Y-36674319D02*
X174504761Y-36674319D01*
X174504761Y-36674319D02*
X174409523Y-36721938D01*
X174409523Y-36721938D02*
X174361904Y-36769557D01*
X174361904Y-36769557D02*
X174314285Y-36864795D01*
X174314285Y-36864795D02*
X174314285Y-36960033D01*
X174314285Y-36960033D02*
X174361904Y-37055271D01*
X174361904Y-37055271D02*
X174409523Y-37102890D01*
X174409523Y-37102890D02*
X174504761Y-37150509D01*
X174504761Y-37150509D02*
X174838094Y-37150509D01*
X173314285Y-37674319D02*
X173885713Y-37674319D01*
X173599999Y-37674319D02*
X173599999Y-36674319D01*
X173599999Y-36674319D02*
X173695237Y-36817176D01*
X173695237Y-36817176D02*
X173790475Y-36912414D01*
X173790475Y-36912414D02*
X173885713Y-36960033D01*
X184417080Y-60402083D02*
X184464700Y-60354464D01*
X184464700Y-60354464D02*
X184512319Y-60211607D01*
X184512319Y-60211607D02*
X184512319Y-60116369D01*
X184512319Y-60116369D02*
X184464700Y-59973512D01*
X184464700Y-59973512D02*
X184369461Y-59878274D01*
X184369461Y-59878274D02*
X184274223Y-59830655D01*
X184274223Y-59830655D02*
X184083747Y-59783036D01*
X184083747Y-59783036D02*
X183940890Y-59783036D01*
X183940890Y-59783036D02*
X183750414Y-59830655D01*
X183750414Y-59830655D02*
X183655176Y-59878274D01*
X183655176Y-59878274D02*
X183559938Y-59973512D01*
X183559938Y-59973512D02*
X183512319Y-60116369D01*
X183512319Y-60116369D02*
X183512319Y-60211607D01*
X183512319Y-60211607D02*
X183559938Y-60354464D01*
X183559938Y-60354464D02*
X183607557Y-60402083D01*
X183512319Y-61306845D02*
X183512319Y-60830655D01*
X183512319Y-60830655D02*
X183988509Y-60783036D01*
X183988509Y-60783036D02*
X183940890Y-60830655D01*
X183940890Y-60830655D02*
X183893271Y-60925893D01*
X183893271Y-60925893D02*
X183893271Y-61163988D01*
X183893271Y-61163988D02*
X183940890Y-61259226D01*
X183940890Y-61259226D02*
X183988509Y-61306845D01*
X183988509Y-61306845D02*
X184083747Y-61354464D01*
X184083747Y-61354464D02*
X184321842Y-61354464D01*
X184321842Y-61354464D02*
X184417080Y-61306845D01*
X184417080Y-61306845D02*
X184464700Y-61259226D01*
X184464700Y-61259226D02*
X184512319Y-61163988D01*
X184512319Y-61163988D02*
X184512319Y-60925893D01*
X184512319Y-60925893D02*
X184464700Y-60830655D01*
X184464700Y-60830655D02*
X184417080Y-60783036D01*
X197209580Y-40314583D02*
X197257200Y-40266964D01*
X197257200Y-40266964D02*
X197304819Y-40124107D01*
X197304819Y-40124107D02*
X197304819Y-40028869D01*
X197304819Y-40028869D02*
X197257200Y-39886012D01*
X197257200Y-39886012D02*
X197161961Y-39790774D01*
X197161961Y-39790774D02*
X197066723Y-39743155D01*
X197066723Y-39743155D02*
X196876247Y-39695536D01*
X196876247Y-39695536D02*
X196733390Y-39695536D01*
X196733390Y-39695536D02*
X196542914Y-39743155D01*
X196542914Y-39743155D02*
X196447676Y-39790774D01*
X196447676Y-39790774D02*
X196352438Y-39886012D01*
X196352438Y-39886012D02*
X196304819Y-40028869D01*
X196304819Y-40028869D02*
X196304819Y-40124107D01*
X196304819Y-40124107D02*
X196352438Y-40266964D01*
X196352438Y-40266964D02*
X196400057Y-40314583D01*
X196304819Y-41171726D02*
X196304819Y-40981250D01*
X196304819Y-40981250D02*
X196352438Y-40886012D01*
X196352438Y-40886012D02*
X196400057Y-40838393D01*
X196400057Y-40838393D02*
X196542914Y-40743155D01*
X196542914Y-40743155D02*
X196733390Y-40695536D01*
X196733390Y-40695536D02*
X197114342Y-40695536D01*
X197114342Y-40695536D02*
X197209580Y-40743155D01*
X197209580Y-40743155D02*
X197257200Y-40790774D01*
X197257200Y-40790774D02*
X197304819Y-40886012D01*
X197304819Y-40886012D02*
X197304819Y-41076488D01*
X197304819Y-41076488D02*
X197257200Y-41171726D01*
X197257200Y-41171726D02*
X197209580Y-41219345D01*
X197209580Y-41219345D02*
X197114342Y-41266964D01*
X197114342Y-41266964D02*
X196876247Y-41266964D01*
X196876247Y-41266964D02*
X196781009Y-41219345D01*
X196781009Y-41219345D02*
X196733390Y-41171726D01*
X196733390Y-41171726D02*
X196685771Y-41076488D01*
X196685771Y-41076488D02*
X196685771Y-40886012D01*
X196685771Y-40886012D02*
X196733390Y-40790774D01*
X196733390Y-40790774D02*
X196781009Y-40743155D01*
X196781009Y-40743155D02*
X196876247Y-40695536D01*
X225498569Y-42186905D02*
X224498569Y-42186905D01*
X224498569Y-42186905D02*
X224498569Y-42425000D01*
X224498569Y-42425000D02*
X224546188Y-42567857D01*
X224546188Y-42567857D02*
X224641426Y-42663095D01*
X224641426Y-42663095D02*
X224736664Y-42710714D01*
X224736664Y-42710714D02*
X224927140Y-42758333D01*
X224927140Y-42758333D02*
X225069997Y-42758333D01*
X225069997Y-42758333D02*
X225260473Y-42710714D01*
X225260473Y-42710714D02*
X225355711Y-42663095D01*
X225355711Y-42663095D02*
X225450950Y-42567857D01*
X225450950Y-42567857D02*
X225498569Y-42425000D01*
X225498569Y-42425000D02*
X225498569Y-42186905D01*
X225498569Y-43710714D02*
X225498569Y-43139286D01*
X225498569Y-43425000D02*
X224498569Y-43425000D01*
X224498569Y-43425000D02*
X224641426Y-43329762D01*
X224641426Y-43329762D02*
X224736664Y-43234524D01*
X224736664Y-43234524D02*
X224784283Y-43139286D01*
X171623509Y-50654166D02*
X171623509Y-50320833D01*
X172147319Y-50320833D02*
X171147319Y-50320833D01*
X171147319Y-50320833D02*
X171147319Y-50797023D01*
X172147319Y-51701785D02*
X172147319Y-51130357D01*
X172147319Y-51416071D02*
X171147319Y-51416071D01*
X171147319Y-51416071D02*
X171290176Y-51320833D01*
X171290176Y-51320833D02*
X171385414Y-51225595D01*
X171385414Y-51225595D02*
X171433033Y-51130357D01*
X225498569Y-61236905D02*
X224498569Y-61236905D01*
X224498569Y-61236905D02*
X224498569Y-61475000D01*
X224498569Y-61475000D02*
X224546188Y-61617857D01*
X224546188Y-61617857D02*
X224641426Y-61713095D01*
X224641426Y-61713095D02*
X224736664Y-61760714D01*
X224736664Y-61760714D02*
X224927140Y-61808333D01*
X224927140Y-61808333D02*
X225069997Y-61808333D01*
X225069997Y-61808333D02*
X225260473Y-61760714D01*
X225260473Y-61760714D02*
X225355711Y-61713095D01*
X225355711Y-61713095D02*
X225450950Y-61617857D01*
X225450950Y-61617857D02*
X225498569Y-61475000D01*
X225498569Y-61475000D02*
X225498569Y-61236905D01*
X224498569Y-62141667D02*
X224498569Y-62760714D01*
X224498569Y-62760714D02*
X224879521Y-62427381D01*
X224879521Y-62427381D02*
X224879521Y-62570238D01*
X224879521Y-62570238D02*
X224927140Y-62665476D01*
X224927140Y-62665476D02*
X224974759Y-62713095D01*
X224974759Y-62713095D02*
X225069997Y-62760714D01*
X225069997Y-62760714D02*
X225308092Y-62760714D01*
X225308092Y-62760714D02*
X225403330Y-62713095D01*
X225403330Y-62713095D02*
X225450950Y-62665476D01*
X225450950Y-62665476D02*
X225498569Y-62570238D01*
X225498569Y-62570238D02*
X225498569Y-62284524D01*
X225498569Y-62284524D02*
X225450950Y-62189286D01*
X225450950Y-62189286D02*
X225403330Y-62141667D01*
X205304819Y-57895833D02*
X204828628Y-57562500D01*
X205304819Y-57324405D02*
X204304819Y-57324405D01*
X204304819Y-57324405D02*
X204304819Y-57705357D01*
X204304819Y-57705357D02*
X204352438Y-57800595D01*
X204352438Y-57800595D02*
X204400057Y-57848214D01*
X204400057Y-57848214D02*
X204495295Y-57895833D01*
X204495295Y-57895833D02*
X204638152Y-57895833D01*
X204638152Y-57895833D02*
X204733390Y-57848214D01*
X204733390Y-57848214D02*
X204781009Y-57800595D01*
X204781009Y-57800595D02*
X204828628Y-57705357D01*
X204828628Y-57705357D02*
X204828628Y-57324405D01*
X205304819Y-58848214D02*
X205304819Y-58276786D01*
X205304819Y-58562500D02*
X204304819Y-58562500D01*
X204304819Y-58562500D02*
X204447676Y-58467262D01*
X204447676Y-58467262D02*
X204542914Y-58372024D01*
X204542914Y-58372024D02*
X204590533Y-58276786D01*
X191752080Y-40177083D02*
X191799700Y-40129464D01*
X191799700Y-40129464D02*
X191847319Y-39986607D01*
X191847319Y-39986607D02*
X191847319Y-39891369D01*
X191847319Y-39891369D02*
X191799700Y-39748512D01*
X191799700Y-39748512D02*
X191704461Y-39653274D01*
X191704461Y-39653274D02*
X191609223Y-39605655D01*
X191609223Y-39605655D02*
X191418747Y-39558036D01*
X191418747Y-39558036D02*
X191275890Y-39558036D01*
X191275890Y-39558036D02*
X191085414Y-39605655D01*
X191085414Y-39605655D02*
X190990176Y-39653274D01*
X190990176Y-39653274D02*
X190894938Y-39748512D01*
X190894938Y-39748512D02*
X190847319Y-39891369D01*
X190847319Y-39891369D02*
X190847319Y-39986607D01*
X190847319Y-39986607D02*
X190894938Y-40129464D01*
X190894938Y-40129464D02*
X190942557Y-40177083D01*
X190847319Y-40510417D02*
X190847319Y-41177083D01*
X190847319Y-41177083D02*
X191847319Y-40748512D01*
X183766666Y-49479580D02*
X183814285Y-49527200D01*
X183814285Y-49527200D02*
X183957142Y-49574819D01*
X183957142Y-49574819D02*
X184052380Y-49574819D01*
X184052380Y-49574819D02*
X184195237Y-49527200D01*
X184195237Y-49527200D02*
X184290475Y-49431961D01*
X184290475Y-49431961D02*
X184338094Y-49336723D01*
X184338094Y-49336723D02*
X184385713Y-49146247D01*
X184385713Y-49146247D02*
X184385713Y-49003390D01*
X184385713Y-49003390D02*
X184338094Y-48812914D01*
X184338094Y-48812914D02*
X184290475Y-48717676D01*
X184290475Y-48717676D02*
X184195237Y-48622438D01*
X184195237Y-48622438D02*
X184052380Y-48574819D01*
X184052380Y-48574819D02*
X183957142Y-48574819D01*
X183957142Y-48574819D02*
X183814285Y-48622438D01*
X183814285Y-48622438D02*
X183766666Y-48670057D01*
X182814285Y-49574819D02*
X183385713Y-49574819D01*
X183099999Y-49574819D02*
X183099999Y-48574819D01*
X183099999Y-48574819D02*
X183195237Y-48717676D01*
X183195237Y-48717676D02*
X183290475Y-48812914D01*
X183290475Y-48812914D02*
X183385713Y-48860533D01*
X176033332Y-69296200D02*
X175890475Y-69343819D01*
X175890475Y-69343819D02*
X175652380Y-69343819D01*
X175652380Y-69343819D02*
X175557142Y-69296200D01*
X175557142Y-69296200D02*
X175509523Y-69248580D01*
X175509523Y-69248580D02*
X175461904Y-69153342D01*
X175461904Y-69153342D02*
X175461904Y-69058104D01*
X175461904Y-69058104D02*
X175509523Y-68962866D01*
X175509523Y-68962866D02*
X175557142Y-68915247D01*
X175557142Y-68915247D02*
X175652380Y-68867628D01*
X175652380Y-68867628D02*
X175842856Y-68820009D01*
X175842856Y-68820009D02*
X175938094Y-68772390D01*
X175938094Y-68772390D02*
X175985713Y-68724771D01*
X175985713Y-68724771D02*
X176033332Y-68629533D01*
X176033332Y-68629533D02*
X176033332Y-68534295D01*
X176033332Y-68534295D02*
X175985713Y-68439057D01*
X175985713Y-68439057D02*
X175938094Y-68391438D01*
X175938094Y-68391438D02*
X175842856Y-68343819D01*
X175842856Y-68343819D02*
X175604761Y-68343819D01*
X175604761Y-68343819D02*
X175461904Y-68391438D01*
X175128570Y-68343819D02*
X174890475Y-69343819D01*
X174890475Y-69343819D02*
X174699999Y-68629533D01*
X174699999Y-68629533D02*
X174509523Y-69343819D01*
X174509523Y-69343819D02*
X174271428Y-68343819D01*
X173366666Y-69343819D02*
X173938094Y-69343819D01*
X173652380Y-69343819D02*
X173652380Y-68343819D01*
X173652380Y-68343819D02*
X173747618Y-68486676D01*
X173747618Y-68486676D02*
X173842856Y-68581914D01*
X173842856Y-68581914D02*
X173938094Y-68629533D01*
D11*
%TO.C,C2*%
X184215000Y-45367502D02*
X184215000Y-44844998D01*
X185685000Y-45367502D02*
X185685000Y-44844998D01*
%TO.C,R4*%
X181040000Y-44902064D02*
X181040000Y-44447936D01*
X182510000Y-44902064D02*
X182510000Y-44447936D01*
%TO.C,C3*%
X198461252Y-61283750D02*
X197938748Y-61283750D01*
X198461252Y-62753750D02*
X197938748Y-62753750D01*
%TO.C,Y1*%
X196047500Y-38821250D02*
X196047500Y-42241250D01*
X196047500Y-42241250D02*
X191927500Y-42241250D01*
%TO.C,C4*%
X202465000Y-47642502D02*
X202465000Y-47119998D01*
X203935000Y-47642502D02*
X203935000Y-47119998D01*
%TO.C,R3*%
X172302500Y-46939564D02*
X172302500Y-46485436D01*
X173772500Y-46939564D02*
X173772500Y-46485436D01*
%TO.C,U1*%
X188571250Y-47383750D02*
X188571250Y-47958750D01*
X188571250Y-57028750D02*
X188571250Y-57603750D01*
X188571250Y-57603750D02*
X189146250Y-57603750D01*
X189146250Y-47383750D02*
X188571250Y-47383750D01*
X198216250Y-57603750D02*
X198791250Y-57603750D01*
X198791250Y-47383750D02*
X198216250Y-47383750D01*
X198791250Y-47958750D02*
X198791250Y-47383750D01*
X198791250Y-57603750D02*
X198791250Y-57028750D01*
X188271250Y-57503750D02*
X187591250Y-57503750D01*
X187931250Y-57033750D01*
X188271250Y-57503750D01*
G36*
X188271250Y-57503750D02*
G01*
X187591250Y-57503750D01*
X187931250Y-57033750D01*
X188271250Y-57503750D01*
G37*
%TO.C,R2*%
X175252500Y-46939564D02*
X175252500Y-46485436D01*
X176722500Y-46939564D02*
X176722500Y-46485436D01*
D10*
%TO.C,USB1*%
X171250000Y-35187500D02*
X171250000Y-40637500D01*
X171250000Y-40637500D02*
X178950000Y-40637500D01*
X178950000Y-35187500D02*
X178950000Y-40637500D01*
D11*
%TO.C,C5*%
X185002500Y-60307498D02*
X185002500Y-60830002D01*
X186472500Y-60307498D02*
X186472500Y-60830002D01*
%TO.C,C6*%
X197465000Y-40082498D02*
X197465000Y-40605002D01*
X198935000Y-40082498D02*
X198935000Y-40605002D01*
%TO.C,D2*%
X241093750Y-45222500D02*
X241093750Y-41212500D01*
X243093750Y-45222500D02*
X241093750Y-45222500D01*
X243093750Y-45222500D02*
X243093750Y-41212500D01*
%TO.C,D1*%
X222043750Y-45285000D02*
X222043750Y-41275000D01*
X224043750Y-45285000D02*
X222043750Y-45285000D01*
X224043750Y-45285000D02*
X224043750Y-41275000D01*
%TO.C,F1*%
X168952500Y-51589564D02*
X168952500Y-50385436D01*
X170772500Y-51589564D02*
X170772500Y-50385436D01*
%TO.C,D3*%
X222043750Y-64335000D02*
X222043750Y-60325000D01*
X224043750Y-64335000D02*
X222043750Y-64335000D01*
X224043750Y-64335000D02*
X224043750Y-60325000D01*
%TO.C,R1*%
X202465000Y-58289564D02*
X202465000Y-57835436D01*
X203935000Y-58289564D02*
X203935000Y-57835436D01*
%TO.C,C7*%
X188977500Y-40605002D02*
X188977500Y-40082498D01*
X190447500Y-40605002D02*
X190447500Y-40082498D01*
%TO.C,C1*%
X183861252Y-50065000D02*
X183338748Y-50065000D01*
X183861252Y-51535000D02*
X183338748Y-51535000D01*
D10*
%TO.C,SW1*%
X172100000Y-62225000D02*
X172100000Y-67425000D01*
X172100000Y-67425000D02*
X177300000Y-67425000D01*
X177300000Y-62225000D02*
X172100000Y-62225000D01*
X177300000Y-67425000D02*
X177300000Y-62225000D01*
X175700000Y-64825000D02*
G75*
G02*
X173700000Y-64825000I-1000000J0D01*
G01*
X173700000Y-64825000D02*
G75*
G02*
X175700000Y-64825000I1000000J0D01*
G01*
D11*
%TO.C,D4*%
X241093750Y-64272500D02*
X241093750Y-60262500D01*
X243093750Y-64272500D02*
X241093750Y-64272500D01*
X243093750Y-64272500D02*
X243093750Y-60262500D01*
%TD*%
M02*
