%TF.GenerationSoftware,KiCad,Pcbnew,9.0.7*%
%TF.CreationDate,2026-03-10T15:29:50-06:00*%
%TF.ProjectId,keyboard-pcb-proj-best,6b657962-6f61-4726-942d-7063622d7072,rev?*%
%TF.SameCoordinates,Original*%
%TF.FileFunction,Paste,Bot*%
%TF.FilePolarity,Positive*%
%FSLAX46Y46*%
G04 Gerber Fmt 4.6, Leading zero omitted, Abs format (unit mm)*
G04 Created by KiCad (PCBNEW 9.0.7) date 2026-03-10 15:29:50*
%MOMM*%
%LPD*%
G01*
G04 APERTURE LIST*
G04 Aperture macros list*
%AMRoundRect*
0 Rectangle with rounded corners*
0 $1 Rounding radius*
0 $2 $3 $4 $5 $6 $7 $8 $9 X,Y pos of 4 corners*
0 Add a 4 corners polygon primitive as box body*
4,1,4,$2,$3,$4,$5,$6,$7,$8,$9,$2,$3,0*
0 Add four circle primitives for the rounded corners*
1,1,$1+$1,$2,$3*
1,1,$1+$1,$4,$5*
1,1,$1+$1,$6,$7*
1,1,$1+$1,$8,$9*
0 Add four rect primitives between the rounded corners*
20,1,$1+$1,$2,$3,$4,$5,0*
20,1,$1+$1,$4,$5,$6,$7,0*
20,1,$1+$1,$6,$7,$8,$9,0*
20,1,$1+$1,$8,$9,$2,$3,0*%
G04 Aperture macros list end*
%ADD10RoundRect,0.250000X0.475000X-0.337500X0.475000X0.337500X-0.475000X0.337500X-0.475000X-0.337500X0*%
%ADD11RoundRect,0.250000X0.450000X-0.262500X0.450000X0.262500X-0.450000X0.262500X-0.450000X-0.262500X0*%
%ADD12RoundRect,0.250000X0.337500X0.475000X-0.337500X0.475000X-0.337500X-0.475000X0.337500X-0.475000X0*%
%ADD13RoundRect,0.250000X0.450000X0.350000X-0.450000X0.350000X-0.450000X-0.350000X0.450000X-0.350000X0*%
%ADD14RoundRect,0.137500X-0.600000X-0.137500X0.600000X-0.137500X0.600000X0.137500X-0.600000X0.137500X0*%
%ADD15RoundRect,0.137500X-0.137500X-0.600000X0.137500X-0.600000X0.137500X0.600000X-0.137500X0.600000X0*%
%ADD16R,0.500000X2.250000*%
%ADD17RoundRect,0.250000X-0.475000X0.337500X-0.475000X-0.337500X0.475000X-0.337500X0.475000X0.337500X0*%
%ADD18RoundRect,0.225000X0.375000X-0.225000X0.375000X0.225000X-0.375000X0.225000X-0.375000X-0.225000X0*%
%ADD19RoundRect,0.250000X0.625000X-0.375000X0.625000X0.375000X-0.625000X0.375000X-0.625000X-0.375000X0*%
%ADD20R,1.800000X1.100000*%
G04 APERTURE END LIST*
D10*
%TO.C,C2*%
X184950000Y-46143750D03*
X184950000Y-44068750D03*
%TD*%
D11*
%TO.C,R4*%
X181775000Y-45587500D03*
X181775000Y-43762500D03*
%TD*%
D12*
%TO.C,C3*%
X199237500Y-62018750D03*
X197162500Y-62018750D03*
%TD*%
D13*
%TO.C,Y1*%
X195087500Y-41381250D03*
X192887500Y-41381250D03*
X192887500Y-39681250D03*
X195087500Y-39681250D03*
%TD*%
D10*
%TO.C,C4*%
X203200000Y-48418750D03*
X203200000Y-46343750D03*
%TD*%
D11*
%TO.C,R3*%
X173037500Y-47625000D03*
X173037500Y-45800000D03*
%TD*%
D14*
%TO.C,U1*%
X188018750Y-56493750D03*
X188018750Y-55693750D03*
X188018750Y-54893750D03*
X188018750Y-54093750D03*
X188018750Y-53293750D03*
X188018750Y-52493750D03*
X188018750Y-51693750D03*
X188018750Y-50893750D03*
X188018750Y-50093750D03*
X188018750Y-49293750D03*
X188018750Y-48493750D03*
D15*
X189681250Y-46831250D03*
X190481250Y-46831250D03*
X191281250Y-46831250D03*
X192081250Y-46831250D03*
X192881250Y-46831250D03*
X193681250Y-46831250D03*
X194481250Y-46831250D03*
X195281250Y-46831250D03*
X196081250Y-46831250D03*
X196881250Y-46831250D03*
X197681250Y-46831250D03*
D14*
X199343750Y-48493750D03*
X199343750Y-49293750D03*
X199343750Y-50093750D03*
X199343750Y-50893750D03*
X199343750Y-51693750D03*
X199343750Y-52493750D03*
X199343750Y-53293750D03*
X199343750Y-54093750D03*
X199343750Y-54893750D03*
X199343750Y-55693750D03*
X199343750Y-56493750D03*
D15*
X197681250Y-58156250D03*
X196881250Y-58156250D03*
X196081250Y-58156250D03*
X195281250Y-58156250D03*
X194481250Y-58156250D03*
X193681250Y-58156250D03*
X192881250Y-58156250D03*
X192081250Y-58156250D03*
X191281250Y-58156250D03*
X190481250Y-58156250D03*
X189681250Y-58156250D03*
%TD*%
D11*
%TO.C,R2*%
X175987500Y-47625000D03*
X175987500Y-45800000D03*
%TD*%
D16*
%TO.C,USB1*%
X176700000Y-39687500D03*
X175900000Y-39687500D03*
X175100000Y-39687500D03*
X174300000Y-39687500D03*
X173500000Y-39687500D03*
%TD*%
D17*
%TO.C,C5*%
X185737500Y-59531250D03*
X185737500Y-61606250D03*
%TD*%
%TO.C,C6*%
X198200000Y-39306250D03*
X198200000Y-41381250D03*
%TD*%
D18*
%TO.C,D2*%
X242093750Y-44512500D03*
X242093750Y-41212500D03*
%TD*%
%TO.C,D1*%
X223043750Y-44575000D03*
X223043750Y-41275000D03*
%TD*%
D19*
%TO.C,F1*%
X169862500Y-52387500D03*
X169862500Y-49587500D03*
%TD*%
D18*
%TO.C,D3*%
X223043750Y-63625000D03*
X223043750Y-60325000D03*
%TD*%
D11*
%TO.C,R1*%
X203200000Y-58975000D03*
X203200000Y-57150000D03*
%TD*%
D10*
%TO.C,C7*%
X189712500Y-41381250D03*
X189712500Y-39306250D03*
%TD*%
D12*
%TO.C,C1*%
X184637500Y-50800000D03*
X182562500Y-50800000D03*
%TD*%
D20*
%TO.C,SW1*%
X171600000Y-66675000D03*
X177800000Y-62975000D03*
X171600000Y-62975000D03*
X177800000Y-66675000D03*
%TD*%
D18*
%TO.C,D4*%
X242093750Y-63562500D03*
X242093750Y-60262500D03*
%TD*%
M02*
